<svg xmlns="http://www.w3.org/2000/svg" viewBox="0 0 226.84 75.73"><defs><style>.cls-1{fill:#231815;}</style></defs><title>자산 53</title><g id="레이어_2" data-name="레이어 2"><g id="레이어_1-2" data-name="레이어 1"><path class="cls-1" d="M98.86.17l-.08.44H101a2.54,2.54,0,0,1-1.09,1.22,5,5,0,0,1-1.86.7l.2.45A6.8,6.8,0,0,0,100,2.3a3.76,3.76,0,0,0,1.14-1,2,2,0,0,0,.73,1,3.94,3.94,0,0,0,1.43.67l.39-.45A3.26,3.26,0,0,1,102,1.81a1.3,1.3,0,0,1-.48-1.2h2.25l.07-.44h-5M97.31,3.73l-.08.43h3L99.66,7h.51l.61-2.82h3l.08-.43H97.31"/><path class="cls-1" d="M124.3.44a2.6,2.6,0,0,0-1.61.47A1.88,1.88,0,0,0,122,2.08a1.19,1.19,0,0,0,.24,1.14,1.82,1.82,0,0,0,1.42.48,2.46,2.46,0,0,0,1.58-.48,2,2,0,0,0,.75-1.14,1.31,1.31,0,0,0-.25-1.17A1.83,1.83,0,0,0,124.3.44m-.08.4a1.25,1.25,0,0,1,1,.35.94.94,0,0,1,.19.89,1.4,1.4,0,0,1-.56.86,1.92,1.92,0,0,1-1.17.36,1.31,1.31,0,0,1-1-.36.88.88,0,0,1-.19-.86,1.49,1.49,0,0,1,.56-.89,1.89,1.89,0,0,1,1.19-.35M127.31,0h0l-1.48,7h.51L127.77.25s0,0,0-.06l0-.06s0-.08,0-.1-.07,0-.18,0h-.39M120.8,5.16h0l0,.42q0,.13,0,.15s0,0,.09,0l.11-.06.14,0c.86,0,1.6-.05,2.24-.08.86,0,1.62-.12,2.29-.2V4.92c-.62.08-1.42.14-2.37.19s-1.77.06-2.56,0"/><path class="cls-1" d="M3.13,13.47a4.1,4.1,0,0,1-.91,1.87A4.56,4.56,0,0,1,.48,16.58L.69,17A9.56,9.56,0,0,0,2.05,16,4.9,4.9,0,0,0,3,14.92a2.26,2.26,0,0,0,.53,1,3.13,3.13,0,0,0,.94.77l.36-.38a2.34,2.34,0,0,1-1.14-.93,1.82,1.82,0,0,1-.21-1.52l.07-.14.07-.11c.05-.06.07-.11.05-.12s0,0-.11,0h-.4M6.3,13.2H6L5,17.73h.45l.9-4.28s0-.06,0-.08a.15.15,0,0,0,0-.06s0-.08,0-.08-.06,0-.18,0M1.7,17.27H1.36L1,19.19H5.33l.08-.38H1.48l.29-1.34s0,0,0-.06,0,0,0-.05.05-.06,0-.08,0,0-.14,0"/><path class="cls-1" d="M9.39,13.28h0l-.08.36h1.78l.08-.36H9.39m-1.23.78h0l-.08.36H12l.08-.36H8.16m1.81.66h0A2.1,2.1,0,0,0,8.81,15a.94.94,0,0,0-.51.67.59.59,0,0,0,.23.66,1.57,1.57,0,0,0,1.05.28,2.2,2.2,0,0,0,1.17-.28,1.08,1.08,0,0,0,.52-.66A.69.69,0,0,0,11,15,1.66,1.66,0,0,0,10,14.72m-.06.36h0a1.47,1.47,0,0,1,.75.14.39.39,0,0,1,.17.45.6.6,0,0,1-.36.42,1.69,1.69,0,0,1-.81.16,1.26,1.26,0,0,1-.75-.16.35.35,0,0,1-.18-.42.67.67,0,0,1,.36-.45,1.8,1.8,0,0,1,.82-.14m3.31-1.88h-.28L12.14,17h.45l.33-1.58H14l.08-.39H13l.33-1.58a.25.25,0,0,0,0-.08l.05-.06c0-.05.06-.08,0-.1a.63.63,0,0,0-.22,0m-2.74,4h0a4.11,4.11,0,0,0-1.73.32,1.24,1.24,0,0,0-.69.82.72.72,0,0,0,.36.81,2.93,2.93,0,0,0,1.58.33,3.83,3.83,0,0,0,1.73-.33,1.23,1.23,0,0,0,.72-.81.74.74,0,0,0-.39-.82,3.09,3.09,0,0,0-1.58-.32m-.07.34h0a2.81,2.81,0,0,1,1.26.22.51.51,0,0,1,.33.58.81.81,0,0,1-.56.57,3.35,3.35,0,0,1-1.36.22,2.73,2.73,0,0,1-1.27-.22.49.49,0,0,1-.29-.57.84.84,0,0,1,.53-.58,3.53,3.53,0,0,1,1.36-.22"/><path class="cls-1" d="M17.39,13.83l-.08.37h1.27a6.28,6.28,0,0,1-.89,2.16,4.32,4.32,0,0,1-1.41,1.33l.24.36a8,8,0,0,0,1.07-1,5.26,5.26,0,0,0,.82-1.19A1.94,1.94,0,0,0,18.64,17a4,4,0,0,0,.63.89l.4-.36a2.05,2.05,0,0,1-.79-1.25,3.51,3.51,0,0,1,.17-2.05h1.08l.07-.37H17.39m2.11,1.53h0l-.08.36h1L19.77,19h.48l1.14-5.46a.1.1,0,0,1,0-.07.15.15,0,0,0,0-.06c0-.05.05-.06,0-.08a.46.46,0,0,0-.19,0H21l-.42,2h-1m2.67-2.16h0l-1.28,6.16h.45l1.24-5.95a.07.07,0,0,1,0-.05l0,0c0-.05,0-.06,0-.08a.25.25,0,0,0-.14,0h-.36"/><path class="cls-1" d="M24.59,18.94h.47l1.11-5.33h-.42a1.17,1.17,0,0,1-.48.73,1.68,1.68,0,0,1-1,.24h0l-.06.31h.08a2.75,2.75,0,0,0,.7-.08,1.42,1.42,0,0,0,.5-.2l-.91,4.33"/><path class="cls-1" d="M27.59,19.77a1.27,1.27,0,0,0,.57-.29.94.94,0,0,0,.22-.46l.17-.85h-.63l-.12.63h.37l0,.23a.66.66,0,0,1-.13.28.63.63,0,0,1-.34.19l-.07.27"/><path class="cls-1" d="M32.08,18.8h3.15l.08-.39h-2.7a1.61,1.61,0,0,1,.47-.79A3.43,3.43,0,0,1,34,17l.46-.23c.25-.13.43-.22.56-.3a3.18,3.18,0,0,0,.47-.33,1.38,1.38,0,0,0,.37-.48,1.63,1.63,0,0,0,.25-.63,1.09,1.09,0,0,0-1.18-1.45,1.86,1.86,0,0,0-1.25.41,2.17,2.17,0,0,0-.71,1.26h.47a1.69,1.69,0,0,1,.49-1,1.36,1.36,0,0,1,.89-.28.84.84,0,0,1,.7.27.9.9,0,0,1,.11.79,1.66,1.66,0,0,1-.17.49,2.44,2.44,0,0,1-.32.36,1.36,1.36,0,0,1-.37.26l-.5.27-.52.28a3.77,3.77,0,0,0-1.07.81,2.45,2.45,0,0,0-.52,1.1l0,.14"/><path class="cls-1" d="M36.5,19.77a1.18,1.18,0,0,0,.56-.29.94.94,0,0,0,.22-.46l.17-.85h-.62l-.13.63h.38L37,19a.55.55,0,0,1-.12.28.71.71,0,0,1-.35.19l-.06.27"/><path class="cls-1" d="M41.3,17.33h0a1.32,1.32,0,0,0,.17,1.18,1.22,1.22,0,0,0,1.08.43,2,2,0,0,0,1.25-.41,2,2,0,0,0,.65-1.14,1.3,1.3,0,0,0,0-.86.85.85,0,0,0-.52-.44,1.69,1.69,0,0,0,.6-.45,1.3,1.3,0,0,0,.32-.69,1,1,0,0,0-.18-1,1.12,1.12,0,0,0-.94-.36,1.65,1.65,0,0,0-1.14.39,2.15,2.15,0,0,0-.66,1.14h.45a1.5,1.5,0,0,1,.46-.88,1.19,1.19,0,0,1,.81-.28.79.79,0,0,1,.64.25.86.86,0,0,1,.11.72,1.16,1.16,0,0,1-.45.75A1.42,1.42,0,0,1,43,16h-.19l-.08.35H43a1.15,1.15,0,0,1,.87.25.86.86,0,0,1,.15.82,1.52,1.52,0,0,1-.49.89,1.32,1.32,0,0,1-.91.3.84.84,0,0,1-.73-.31,1.24,1.24,0,0,1-.08-.92H41.3"/><path class="cls-1" d="M45.41,19.77a1.23,1.23,0,0,0,.56-.29.94.94,0,0,0,.22-.46l.17-.85h-.63l-.12.63H46l0,.23a.56.56,0,0,1-.13.28.63.63,0,0,1-.34.19l-.06.27"/><path class="cls-1" d="M52,18.94h.46l.31-1.5h.66l.07-.38h-.65l.72-3.45h-.5l-2.78,3.45-.08.38H52.3Zm.4-1.88H50.69L53,14.19l-.59,2.87"/><path class="cls-1" d="M59.56,14.48h0l-.2.91H56.08l.2-.91h3.28m-3.17-1.15h-.33l-.5,2.42h4.19l.47-2.27a.05.05,0,0,1,0,0s0,0,0,0,0-.05,0-.07h-.5l-.17.8H56.34l.14-.65a0,0,0,0,1,0,0l0,0s0-.05,0-.07h-.17m-1.78,3.15-.08.38h2.66l-.52,2.5h.47l.52-2.5h2.65l.08-.38H54.61"/><path class="cls-1" d="M63,13.36l-.47,2.25h4.29l.08-.39H63.08l.29-1.49h3.74l.09-.37Zm-1.46,3.12-.08.38h2.66l-.51,2.5h.46l.52-2.5h2.66l.07-.38H61.56"/><path class="cls-1" d="M68.23,19.77a1.27,1.27,0,0,0,.57-.29A.94.94,0,0,0,69,19l.17-.85h-.63l-.12.63h.37l0,.23a.66.66,0,0,1-.13.28.63.63,0,0,1-.34.19l-.07.27"/><path class="cls-1" d="M74.19,13.83h0l-.81,3.9a18.53,18.53,0,0,0,2.09-.11c.67-.06,1.33-.15,1.94-.26l0-.39a12.58,12.58,0,0,1-1.75.28c-.67.06-1.23.09-1.72.09l.66-3.14H77.2l.08-.37H74.19M79,13.2h-.28l-1.28,6.16h.45l.64-3.14h1.08l.08-.38H78.56l.5-2.37a.13.13,0,0,0,0-.08.15.15,0,0,1,0-.06c0-.05,0-.08,0-.1a.51.51,0,0,0-.21,0"/><path class="cls-1" d="M85.44,13.73l-.22,1.11H81.94l.22-1.11Zm-3.64-.37-.39,1.87h1.86l-.18.8H80.44l-.08.39h5.78l.08-.39H83.56l.17-.8h1.86L86,13.36H81.8m-.92,3.86-.08.37h3.86l-.36,1.77h.43l.44-2.14H80.88"/><path class="cls-1" d="M88,13.47l-.07.37h1.54a3.07,3.07,0,0,1-.87,1.39,4.28,4.28,0,0,1-1.47,1l.23.35a6.61,6.61,0,0,0,1.19-.77,4.45,4.45,0,0,0,.89-.95,2,2,0,0,0,.47.8,3.39,3.39,0,0,0,1,.68l.36-.36A2.69,2.69,0,0,1,90,15.11a1.25,1.25,0,0,1-.11-1.27h1.46l.07-.37H88m2.75,1.16h0l-.07.37h1.56l-.36,1.72h.45L93,13.44a.08.08,0,0,0,0-.06l0-.05a.22.22,0,0,0,0-.1s0,0-.12,0h-.38l-.29,1.43H90.73m-2.87,2.53-.08.37H91.7l-.37,1.83h.44l.45-2.2H87.86"/><path class="cls-1" d="M99.22,14.48h0l-.2.91H95.73l.21-.91h3.28m-3.17-1.15h-.33l-.5,2.42h4.19l.46-2.27s0,0,0,0,0,0,0,0,0-.05,0-.07h-.5l-.17.8H96l.14-.65a0,0,0,0,1,0,0l0,0s0-.05,0-.07h-.17m-1.78,3.15-.08.38h2.65l-.51,2.5h.47l.51-2.5H100l.08-.38H94.27"/><path class="cls-1" d="M102.67,13.36l-.47,2.25h4.3l.08-.39h-3.84l.29-1.49h3.74l.09-.37Zm-1.45,3.12-.08.38h2.66l-.52,2.5h.47l.52-2.5h2.65l.08-.38h-5.78"/><path class="cls-1" d="M111.22,15.83a6.48,6.48,0,0,0,1.61-.83,3.91,3.91,0,0,0,1-1,2.34,2.34,0,0,0,.63.92,4,4,0,0,0,1.31.76l.31-.4a2.87,2.87,0,0,1-.89-.33,2.43,2.43,0,0,1-.59-.52,1.75,1.75,0,0,1-.35-.5.59.59,0,0,1-.06-.34l0-.13a.26.26,0,0,1,.07-.1c0-.07.08-.11.08-.15s0,0-.12,0h-.42a2.62,2.62,0,0,1-1,1.3,5.25,5.25,0,0,1-1.84.94l.14.39m-.75.65-.08.38h2.66l-.52,2.5H113l.52-2.5h2.65l.08-.38h-5.78"/><path class="cls-1" d="M119.88,13.36a3.55,3.55,0,0,1-.9,1.69,4.57,4.57,0,0,1-1.71,1.18l.21.38a7.51,7.51,0,0,0,1.36-.94,4.12,4.12,0,0,0,.91-1.05,2.15,2.15,0,0,0,.48,1,3.45,3.45,0,0,0,1,.8l.36-.4a2.39,2.39,0,0,1-1.24-.93,1.54,1.54,0,0,1-.14-1.32s0-.08.07-.13a.64.64,0,0,1,.06-.11c0-.08.08-.12.06-.14s0,0-.11,0h-.4m2.82-.16h0L122,16.62h.46l.67-3.21s0,0,0-.05a.13.13,0,0,1,0,0s0-.06,0-.08a.25.25,0,0,0-.14,0h-.36m-.87,4.14-.28,1.36H118.2l.28-1.36h3.35M118.11,17l-.47,2.31h.45l0-.2h3.34l0,.2h.45l.47-2.31h-4.25"/><path class="cls-1" d="M128,13.2a3.87,3.87,0,0,0-1.76.36,1.36,1.36,0,0,0-.72.88.78.78,0,0,0,.36.84,2.91,2.91,0,0,0,1.61.36,3.74,3.74,0,0,0,1.76-.36,1.37,1.37,0,0,0,.72-.84.8.8,0,0,0-.36-.88A3,3,0,0,0,128,13.2m-.07.38a2.78,2.78,0,0,1,1.28.23.56.56,0,0,1,.31.63.87.87,0,0,1-.56.57,3.09,3.09,0,0,1-1.39.25,2.49,2.49,0,0,1-1.3-.25.52.52,0,0,1-.3-.57.91.91,0,0,1,.55-.63,3.71,3.71,0,0,1,1.41-.23m-3.49,2.83-.08.37h5.78l.08-.37h-5.78m.94.92H125l-.39,1.87h4.3l.06-.36h-3.84l.28-1.31s0-.05,0-.06a.13.13,0,0,0,0,0,.16.16,0,0,0,0-.08h-.15"/><path class="cls-1" d="M135.92,13.48a2,2,0,0,0-1.34.49,2.14,2.14,0,0,0-.64,1.12,1.48,1.48,0,0,0,.17,1.16,1.27,1.27,0,0,0,1.12.48,2,2,0,0,0,1.35-.48,2,2,0,0,0,.65-1.16,1.26,1.26,0,0,0-.18-1.12,1.29,1.29,0,0,0-1.13-.49m-.09.41a1,1,0,0,1,.81.36,1.06,1.06,0,0,1,.11.84,1.71,1.71,0,0,1-.47.88,1.4,1.4,0,0,1-.95.36.91.91,0,0,1-.8-.36,1.16,1.16,0,0,1-.11-.88,1.66,1.66,0,0,1,.47-.84,1.34,1.34,0,0,1,.94-.36m3.36-.69h-.28l-1,4.53h.46l.39-1.89h1.08l.07-.37h-1.07l.42-2a.25.25,0,0,0,0-.08s0-.05.05-.06.06-.08,0-.1a.63.63,0,0,0-.22,0m-4.49,4.07h-.34L134,19.19h4.3l.08-.38h-3.85l.29-1.34a.07.07,0,0,1,0-.06.07.07,0,0,1,0-.05c0-.05.05-.06,0-.08h-.14"/><path class="cls-1" d="M141.59,13.44h-.36l-.57,2.84h2.86l.53-2.59a.18.18,0,0,0,0-.06l.05-.07c0-.05,0-.08,0-.09s-.09,0-.2,0h-.3l-.2,1h-2l.18-.81a.18.18,0,0,1,0-.06s0,0,.05-.05l.05-.06a.31.31,0,0,0-.18,0m-.18,1.39h2l-.23,1.09h-2l.24-1.09m2.78-.85h0l-.08.38h1.5l-.19.94h-1.5l-.08.37h1.5l-.2,1h.45l.68-3.22a.09.09,0,0,1,0-.05s0,0,0-.06.05-.07,0-.07,0,0-.12,0h-.36l-.17.78h-1.5m-3.06,3.18-.08.37H145l-.38,1.83H145l.45-2.2h-4.35"/><path class="cls-1" d="M151,13.58a3.31,3.31,0,0,0-1.75.42,1.64,1.64,0,0,0-.78,1,1,1,0,0,0,.36,1,2.4,2.4,0,0,0,1.56.42,3.33,3.33,0,0,0,1.75-.42,1.57,1.57,0,0,0,.77-1,1,1,0,0,0-.35-1,2.42,2.42,0,0,0-1.56-.42m-.08.36a2.1,2.1,0,0,1,1.24.29.73.73,0,0,1,.28.8,1.1,1.1,0,0,1-.61.77,2.76,2.76,0,0,1-1.36.31,2,2,0,0,1-1.23-.31A.7.7,0,0,1,149,15a1.27,1.27,0,0,1,.62-.8,2.72,2.72,0,0,1,1.36-.29m-3.76,4.15-.08.38h5.78l.08-.38h-5.78"/><path class="cls-1" d="M155.89,13.64h0l-.08.38h3.75l-.19.85h-3.75l-.35,1.72h1.85l-.31,1.5h-2.65l-.08.38h5.78l.08-.38h-2.66l.27-1.26a.25.25,0,0,0,0-.08l.06-.06s0-.05,0-.07,0,0-.07,0h2l.08-.37h-3.87l.2-.95h3.76l.35-1.63h-4.19"/><path class="cls-1" d="M166.41,14.48h0l-.21.91h-3.28l.21-.91h3.28m-3.18-1.15h-.32l-.5,2.42h4.18l.47-2.27,0,0s0,0,0,0,0-.05,0-.07h-.5l-.17.8h-3.28l.14-.65a.06.06,0,0,1,0,0l0,0s0-.05,0-.07h-.18m-1.78,3.15-.07.38H164l-.51,2.5H164l.52-2.5h2.66l.07-.38h-5.78"/><path class="cls-1" d="M169,13.69,168.13,18a17.42,17.42,0,0,0,2.06-.11,17.17,17.17,0,0,0,1.76-.27l0-.4a14,14,0,0,1-1.81.3,10.16,10.16,0,0,1-1.51.07L169,15.8h2.27l.08-.38h-2.27l.28-1.36h2.41l.08-.37H169m2.61,2.15h0l-.08.38h1.5l-.64,3.14h.45l1.22-5.92a.17.17,0,0,0,0-.07l0,0a.29.29,0,0,0,.05-.1s-.05,0-.13,0h-.37l-.56,2.64h-1.5"/><path class="cls-1" d="M180,13.36a2.1,2.1,0,0,0-1.32.42,1.76,1.76,0,0,0-.63,1.06,1.2,1.2,0,0,0,.19,1.05,1.36,1.36,0,0,0,1.14.44,2,2,0,0,0,1.33-.44,1.85,1.85,0,0,0,.64-1.05,1.29,1.29,0,0,0-.2-1.06,1.42,1.42,0,0,0-1.15-.42m-.09.39a1,1,0,0,1,.81.3.9.9,0,0,1,.14.79,1.44,1.44,0,0,1-.46.79,1.46,1.46,0,0,1-.94.29,1,1,0,0,1-.81-.29.91.91,0,0,1-.11-.79,1.31,1.31,0,0,1,.43-.79,1.41,1.41,0,0,1,.94-.3m3.05-.55h0l-.72,3.43h.45l.11-.52h1.05l.08-.38h-1l.2-1h1.05l.08-.38h-1.05l.2-.93s0,0,0-.05a.33.33,0,0,1,0-.06c0-.05.06-.07,0-.07s0,0-.14,0h-.37m-4.74,4-.07.37h3.92l-.38,1.83h.44l.45-2.2H178.2"/><path class="cls-1" d="M187.25,16.25a4.23,4.23,0,0,1,.69-1.7A1.3,1.3,0,0,1,189,14a.78.78,0,0,1,.59.22.83.83,0,0,1,.19.66h.44a1.19,1.19,0,0,0-.25-.92,1.09,1.09,0,0,0-.86-.33,1.85,1.85,0,0,0-1.48.7,4.93,4.93,0,0,0-.91,2.16,3,3,0,0,0,.05,1.86,1.11,1.11,0,0,0,1.12.61,1.7,1.7,0,0,0,1.19-.46,2.2,2.2,0,0,0,.67-1.25,1.65,1.65,0,0,0-.12-1.26,1.12,1.12,0,0,0-1-.45,1.74,1.74,0,0,0-.8.18,1.82,1.82,0,0,0-.59.55m-.11.94a1.75,1.75,0,0,1,.5-1,1.23,1.23,0,0,1,.86-.35.73.73,0,0,1,.7.34,1.46,1.46,0,0,1,.08,1.05,1.78,1.78,0,0,1-.48,1,1.23,1.23,0,0,1-.88.33.74.74,0,0,1-.7-.36,1.44,1.44,0,0,1-.08-1"/><path class="cls-1" d="M194.05,14.2l-.63,3H191.5l.63-3h1.92m-2.31-.37-.85,4.06h.47l.06-.3h1.92l0,.19h.47l.81-4h-2.85m4.79-.63h-.31l-1.28,6.16h.45l1.22-5.91a.41.41,0,0,0,0-.08s0,0,.05-.06.05-.08,0-.08-.06,0-.19,0"/><path class="cls-1" d="M198.5,13.69,197.61,18a17.42,17.42,0,0,0,2.06-.11,17.37,17.37,0,0,0,1.77-.27l0-.4a14.24,14.24,0,0,1-1.81.3,10.35,10.35,0,0,1-1.52.07l.38-1.79h2.26l.08-.38h-2.27l.29-1.36h2.4l.08-.37H198.5m2.61,2.15h0l-.08.38h1.5l-.64,3.14h.45l1.22-5.92a.1.1,0,0,0,0-.07l0,0a.22.22,0,0,0,0-.1s0,0-.12,0h-.38l-.56,2.64h-1.5"/><path class="cls-1" d="M209.67,13.47h0l-.56,2.69c.42,0,.8,0,1.16,0s.67-.08.95-.13v-.39a7.6,7.6,0,0,1-.81.11h-.79l.39-1.9h1.32l.08-.36h-1.75m-1.86,0h0l-.58,2.76a7.87,7.87,0,0,0,.94-.07A6.8,6.8,0,0,0,209,16v-.39a3.35,3.35,0,0,1-.55.12,3.65,3.65,0,0,1-.67.08l.41-2h1.11l.07-.36h-1.53m3.07,1h0l-.08.39h1.28l-.33,1.59h.42l.63-3.06a.17.17,0,0,0,0-.07l.05,0a.29.29,0,0,0,0-.1s0,0-.13,0h-.34l-.28,1.32h-1.28M208,16.81l-.07.38h3.71l-.14.61h-3.72l-.29,1.47h4.29l.08-.38H208l.14-.72h3.72l.3-1.36H208"/><path class="cls-1" d="M216.06,14a.75.75,0,0,1,.75.53,2,2,0,0,1,.05,1.22,2.72,2.72,0,0,1-.55,1.2,1.23,1.23,0,0,1-1,.55.8.8,0,0,1-.79-.55,2.07,2.07,0,0,1,0-1.2,3.16,3.16,0,0,1,.53-1.22,1.28,1.28,0,0,1,1-.53m1.22,2h1.5l-.69,3.33h.46l1.22-5.92a.15.15,0,0,0,0-.06l.05-.05a.29.29,0,0,0,0-.1s0,0-.13,0h-.37l-.52,2.44h-1.48a2.36,2.36,0,0,0-.16-1.39,1.12,1.12,0,0,0-1.06-.61,1.81,1.81,0,0,0-1.39.66,3.2,3.2,0,0,0-.71,1.48,2.46,2.46,0,0,0,.08,1.48,1.16,1.16,0,0,0,1.13.66,1.71,1.71,0,0,0,1.26-.56,2.9,2.9,0,0,0,.75-1.33"/><path class="cls-1" d="M221.91,13.59l-.08.39h1.48a4.26,4.26,0,0,1-.84,1.57,3.56,3.56,0,0,1-1.55,1l.25.36a5.37,5.37,0,0,0,1.31-.88,4.1,4.1,0,0,0,.77-.92,2.36,2.36,0,0,0,.5.89,3.28,3.28,0,0,0,1,.83l.35-.36a2.75,2.75,0,0,1-1.22-1.06,1.63,1.63,0,0,1-.09-1.46h1.52l.07-.39h-3.46m4.73-.39h-.31l-1,4.53h.46l.89-4.28s0-.06,0-.08,0,0,.05-.06,0-.08,0-.08-.06,0-.19,0m-4.59,4.07h-.35l-.4,1.92h4.37l.08-.38h-3.92l.28-1.34s0,0,0-.06,0,0,0-.05,0-.06,0-.08-.05,0-.14,0"/><path class="cls-1" d="M98,42.19l.77.11a3.3,3.3,0,0,1-1,1.5,2.63,2.63,0,0,1-1.55.5,2.17,2.17,0,0,1-1.65-.63,2.51,2.51,0,0,1-.61-1.83,3.58,3.58,0,0,1,.93-2.54,2.65,2.65,0,0,1,2-.91,2.19,2.19,0,0,1,1.47.48A2,2,0,0,1,99,40.19l-.71.06a1.59,1.59,0,0,0-.48-.92,1.29,1.29,0,0,0-.89-.31,2,2,0,0,0-1.71.93,3.28,3.28,0,0,0-.56,1.91,1.94,1.94,0,0,0,.42,1.34,1.49,1.49,0,0,0,1.14.47,1.59,1.59,0,0,0,1.07-.39,2.09,2.09,0,0,0,.7-1.09"/><path class="cls-1" d="M98.8,44.2,102,38.48h.91l.94,5.72h-.74l-.28-1.64h-2.31l-.92,1.64H98.8M100.88,42h1.89l-.22-1.44c-.08-.56-.14-1-.16-1.42a12.47,12.47,0,0,1-.58,1.17L100.88,42"/><path class="cls-1" d="M105.88,38.48h.76L105.91,42a4.49,4.49,0,0,0-.08.64.91.91,0,0,0,.36.75,1.38,1.38,0,0,0,.9.28,1.63,1.63,0,0,0,.82-.2,1.46,1.46,0,0,0,.59-.59,4.78,4.78,0,0,0,.39-1.24l.67-3.16h.75l-.68,3.36a4.49,4.49,0,0,1-.49,1.36,2.12,2.12,0,0,1-.8.8,2.35,2.35,0,0,1-1.2.3,2.7,2.7,0,0,1-1.12-.21,1.63,1.63,0,0,1-.72-.59,1.54,1.54,0,0,1-.24-.86,6.55,6.55,0,0,1,.17-1l.65-3.13"/><polygon class="cls-1" points="111.89 44.2 112.95 39.14 111.08 39.14 111.2 38.48 115.7 38.48 115.58 39.14 113.72 39.14 112.66 44.2 111.89 44.2"/><polygon class="cls-1" points="115.41 44.2 116.61 38.48 117.36 38.48 116.17 44.2 115.41 44.2"/><path class="cls-1" d="M117.92,41.81a3.52,3.52,0,0,1,.88-2.47,2.81,2.81,0,0,1,2.14-1,2.31,2.31,0,0,1,1.75.7,2.54,2.54,0,0,1,.67,1.86A3.55,3.55,0,0,1,123,42.5a3.43,3.43,0,0,1-.64.92,3.22,3.22,0,0,1-.83.6,2.92,2.92,0,0,1-1.24.28,2.46,2.46,0,0,1-1.25-.33,2.29,2.29,0,0,1-.86-.91,3,3,0,0,1-.28-1.25m.75,0a2,2,0,0,0,.21.93,1.69,1.69,0,0,0,.6.67,1.91,1.91,0,0,0,.9.23,1.69,1.69,0,0,0,.82-.2,2.29,2.29,0,0,0,.72-.6,2.52,2.52,0,0,0,.49-.9,3.4,3.4,0,0,0,.18-1.08,1.79,1.79,0,0,0-.48-1.34,1.49,1.49,0,0,0-1.17-.52,2,2,0,0,0-1.58.77,3,3,0,0,0-.69,2"/><path class="cls-1" d="M123.8,44.2l1.2-5.72h.73l1,2.14c.3.66.52,1.21.69,1.66a10.94,10.94,0,0,1,.35,1.06c.07-.48.15-1,.26-1.5l.7-3.36h.75l-1.2,5.72h-.75l-1.42-3.29c-.25-.58-.45-1.1-.6-1.55a11.91,11.91,0,0,1-.21,1.37l-.72,3.47h-.75"/><path class="cls-1" d="M3.13,23.31a2.58,2.58,0,0,0-1.41.36,1.51,1.51,0,0,0-.64.92.94.94,0,0,0,.25.91,1.75,1.75,0,0,0,1.25.37A2.4,2.4,0,0,0,4,25.5a1.44,1.44,0,0,0,.62-.91,1,1,0,0,0-.23-.92,1.84,1.84,0,0,0-1.23-.36m-.08.35a1.29,1.29,0,0,1,.9.26.65.65,0,0,1,.19.67,1,1,0,0,1-.45.66,1.89,1.89,0,0,1-1,.26,1.41,1.41,0,0,1-.93-.26.7.7,0,0,1-.18-.66A1.11,1.11,0,0,1,2,23.92a2,2,0,0,1,1-.26m1.59,2.65h0c-.67.08-1.55.13-2.62.17-.89,0-1.49.05-1.77,0l0,.33c0,.1,0,.14,0,.16L.34,27l.08,0a.06.06,0,0,1,0,0l1.69-.05-.43,2h.46l.44-2,1-.07,1-.09,0-.36m1.09-3.15h0L4.45,29.31h.46l1.22-5.92s0-.05,0-.06l.05,0a.25.25,0,0,0,0-.09s0,0-.12,0H5.73"/><path class="cls-1" d="M8,24.56l-.08.38H9.52a3.48,3.48,0,0,1-.85,1.54,4.44,4.44,0,0,1-1.58,1.14L7.3,28a5.66,5.66,0,0,0,1.26-.89,4.38,4.38,0,0,0,.86-1A1.65,1.65,0,0,0,9.8,27a2.48,2.48,0,0,0,1,.8l.38-.36a2.12,2.12,0,0,1-1.21-1,1.83,1.83,0,0,1,0-1.45h1.47l.08-.38H8m1.23-1.14-.08.38h1.61l.08-.38H9.25m3.8-.26h-.31l-1.29,6.15h.46l1.22-5.9s0-.07,0-.08,0,0,0-.07.05-.07,0-.07-.06,0-.18,0"/><path class="cls-1" d="M17.08,23.53a2.36,2.36,0,0,0-1.42.42A1.7,1.7,0,0,0,15,25a1.12,1.12,0,0,0,.23,1,1.52,1.52,0,0,0,1.24.44A2.2,2.2,0,0,0,17.88,26a1.62,1.62,0,0,0,.64-1,1.12,1.12,0,0,0-.22-1,1.61,1.61,0,0,0-1.22-.42m-.08.36a1.2,1.2,0,0,1,.91.31.82.82,0,0,1,.15.77,1.22,1.22,0,0,1-.48.78,1.68,1.68,0,0,1-1,.31,1.24,1.24,0,0,1-.92-.31.85.85,0,0,1-.16-.78A1.43,1.43,0,0,1,16,24.2,1.76,1.76,0,0,1,17,23.89m2.73-.73h0l-1.28,6.15h.46l1.23-5.94a.08.08,0,0,1,0-.06s0,0,0-.06,0-.06,0-.06-.06,0-.14,0h-.35M14,27.69h0l0,.37c0,.08,0,.13,0,.13s.06,0,.11,0l.07-.05a.8.8,0,0,1,.15,0c.73,0,1.39,0,1.95-.07.76-.05,1.44-.1,2-.18l0-.36c-.56.08-1.27.13-2.09.18s-1.57,0-2.27,0"/><path class="cls-1" d="M24.53,25.78A6.32,6.32,0,0,0,26.14,25a3.76,3.76,0,0,0,1-1,2.27,2.27,0,0,0,.63.92,4.24,4.24,0,0,0,1.31.77l.31-.41a2.64,2.64,0,0,1-.89-.33,2.61,2.61,0,0,1-.59-.51,2.08,2.08,0,0,1-.35-.5.74.74,0,0,1-.06-.35l0-.12a.23.23,0,0,1,.08-.11.35.35,0,0,0,.07-.14s0,0-.12,0h-.42a2.64,2.64,0,0,1-1,1.29,4.94,4.94,0,0,1-1.84.94l.14.39m-.75.66-.08.37h2.66l-.52,2.5h.47l.52-2.5h2.65l.08-.37H23.78"/><path class="cls-1" d="M33.24,23.31a3.55,3.55,0,0,1-.9,1.69,4.72,4.72,0,0,1-1.71,1.19l.21.37a7,7,0,0,0,1.36-.94,4.26,4.26,0,0,0,.91-1,2.19,2.19,0,0,0,.48,1,3.42,3.42,0,0,0,1,.79l.36-.4a2.37,2.37,0,0,1-1.24-.92,1.57,1.57,0,0,1-.14-1.33s0-.08.07-.13a.64.64,0,0,1,.06-.11c.05-.07.08-.12.06-.14s0,0-.11,0h-.4m2.82-.15h0l-.72,3.42h.46l.67-3.22a.06.06,0,0,1,0-.05s0,0,0,0l0-.08s-.06,0-.14,0h-.36m-.87,4.14-.28,1.36H31.56l.28-1.36h3.35m-3.72-.38L31,29.23h.45l0-.2h3.34l0,.2h.45l.47-2.31H31.47"/><path class="cls-1" d="M40,24a.77.77,0,0,1,.77.53,2,2,0,0,1,.05,1.22,2.88,2.88,0,0,1-.55,1.21,1.23,1.23,0,0,1-1,.54.76.76,0,0,1-.76-.54,2,2,0,0,1,0-1.21A3.16,3.16,0,0,1,39,24.51,1.24,1.24,0,0,1,40,24m.1-.39a1.8,1.8,0,0,0-1.38.66A3.12,3.12,0,0,0,38,25.73a2.34,2.34,0,0,0,.1,1.49,1.14,1.14,0,0,0,1.11.65,1.77,1.77,0,0,0,1.36-.65,3,3,0,0,0,.73-1.49,2.18,2.18,0,0,0-.11-1.48,1.11,1.11,0,0,0-1.09-.66m3.33-.43h-.32l-1.28,6.15h.45l1.22-5.9s0-.07,0-.08a.13.13,0,0,0,.05-.07s0-.07,0-.07-.06,0-.18,0"/><path class="cls-1" d="M49.81,24l-.39,1.86H46.14L46.53,24Zm-3.65-.39-.55,2.64H49.8l.54-2.64H46.16m-1.72,4.41-.08.37h5.78l.08-.37H44.44"/><path class="cls-1" d="M53.17,23.59h0l-.08.38h3.75l-.18.86H52.91l-.36,1.72h1.86l-.32,1.5H51.44l-.08.37h5.78l.08-.37H54.56l.27-1.27a.25.25,0,0,0,0-.08l.07-.06s0-.05,0-.06,0,0-.06,0h2l.08-.38H53.05l.2-1H57l.34-1.63H53.17"/><path class="cls-1" d="M61.8,23.42l-.08.38h1.55a3.1,3.1,0,0,1-.88,1.39,4.59,4.59,0,0,1-1.47,1l.24.34a5.74,5.74,0,0,0,1.18-.77,4.45,4.45,0,0,0,.89-.95,2,2,0,0,0,.47.8,3.76,3.76,0,0,0,1,.69l.36-.36a2.63,2.63,0,0,1-1.22-.85,1.24,1.24,0,0,1-.11-1.26h1.46l.08-.38H61.8m2.75,1.16h0l-.08.37H66l-.36,1.72h.46l.67-3.28a.15.15,0,0,0,0-.06l0,0,0-.09s0,0-.13,0h-.37l-.3,1.42H64.55M62.3,26.83h-.36l-.5,2.4h.45l0-.18h3.25l0,.18h.45l.46-2.17V27s0,0,0-.06,0-.07,0-.08-.08,0-.19,0h-.3l-.16.72H62.23l.11-.52a.11.11,0,0,1,0-.06s0,0,0,0,0-.06,0-.08H62.3m-.14,1.09h3.25l-.16.77H62l.16-.77"/><path class="cls-1" d="M70.42,23.44a2,2,0,0,0-1.34.48,2.13,2.13,0,0,0-.64,1.13,1.45,1.45,0,0,0,.17,1.15,1.27,1.27,0,0,0,1.12.49,2,2,0,0,0,1.35-.49,2,2,0,0,0,.65-1.15,1.27,1.27,0,0,0-.18-1.13,1.29,1.29,0,0,0-1.13-.48m-.09.4a1,1,0,0,1,.81.36,1.08,1.08,0,0,1,.11.85,1.65,1.65,0,0,1-.47.87,1.36,1.36,0,0,1-1,.36.88.88,0,0,1-.8-.36,1.13,1.13,0,0,1-.11-.87,1.65,1.65,0,0,1,.47-.85,1.34,1.34,0,0,1,.94-.36m3.36-.68h-.28l-1,4.53h.46l.39-1.89h1.08l.07-.38H73.38l.42-2a.25.25,0,0,0,0-.08s0,0,0-.06.06-.08,0-.09a.45.45,0,0,0-.22,0M69.2,27.22h-.34l-.41,1.92h4.3l.08-.37H69l.29-1.35s0-.05,0-.06a.09.09,0,0,1,0-.05s0-.06,0-.08H69.2"/><path class="cls-1" d="M76.78,23.55h0l-.06.36H78.5l.06-.36H76.78m-1.26,1h0l-.08.36h3.9l.08-.36h-3.9m1.78.88h0a1.81,1.81,0,0,0-1.21.39,1.51,1.51,0,0,0-.54.89.94.94,0,0,0,.18.87,1.22,1.22,0,0,0,1,.39A1.79,1.79,0,0,0,78,27.56a1.52,1.52,0,0,0,.57-.87,1,1,0,0,0-.21-.89,1.17,1.17,0,0,0-1-.39m-.08.34h0a.87.87,0,0,1,.72.28.77.77,0,0,1,.14.64,1,1,0,0,1-.41.64,1.27,1.27,0,0,1-.84.28.85.85,0,0,1-.72-.28.76.76,0,0,1-.13-.64,1.07,1.07,0,0,1,.4-.64,1.27,1.27,0,0,1,.84-.28m3.47-2.59h-.28l-1.28,6.15h.45l.64-3.14H81.3l.07-.37H80.3l.5-2.38a.25.25,0,0,0,0-.08s0,0,0-.06,0-.08,0-.09-.08,0-.2,0"/><path class="cls-1" d="M84,23.16h-.34l-.44,2h4.3l.08-.39H83.7L84,23.36a.09.09,0,0,1,0-.05s0,0,0-.06,0-.06,0-.08H84m-1.78,3-.08.39h5.79L88,26.2H82.17m.91,1.08h-.33l-.39,1.88h4.3l.06-.36H82.88l.28-1.32a.15.15,0,0,1,0-.06s0,0,0,0a.27.27,0,0,0,0-.08s-.06,0-.15,0"/><path class="cls-1" d="M93.59,23.42a4,4,0,0,1-.9,1.83A4.45,4.45,0,0,1,91,26.52l.22.37A8.24,8.24,0,0,0,92.52,26a4.22,4.22,0,0,0,.92-1.17A2.67,2.67,0,0,0,93.8,26a3,3,0,0,0,.7.85l.41-.38A2.08,2.08,0,0,1,94,25.34a2.16,2.16,0,0,1-.07-1.5A1.47,1.47,0,0,1,94,23.7l.08-.11a.4.4,0,0,0,.06-.12s0,0-.13,0h-.39m1.24,1.36h0l-.08.38h1.56l-.51,2.5h.45l.88-4.27a.15.15,0,0,0,0-.06l0,0a.25.25,0,0,0,0-.09s0,0-.12,0h-.38l-.34,1.62H94.83m-2.38,2.44h-.34l-.41,1.92h4.38l.08-.37H92.23l.29-1.35s0-.05,0-.06a.13.13,0,0,0,0-.05s0-.06,0-.08,0,0-.14,0"/><path class="cls-1" d="M99.69,23.39h-.36l-.58,2.84h2.86l.52-2.53a.32.32,0,0,1,0-.09l0-.08c0-.05,0-.09,0-.11a.49.49,0,0,0-.2,0h-.31l-.2,1H99.58l.14-.71,0-.11a.21.21,0,0,0,0-.07c0-.05.07-.08,0-.1a.42.42,0,0,0-.17,0m-.19,1.39h1.94l-.24,1.1H99.27l.23-1.1m4.23-1.62h0L103,26.58h.45l.23-1.16h1l.1-.39h-1l.34-1.65,0-.08c0-.05,0-.1,0-.11s0,0-.14,0h-.35M99,27.11l-.08.37h3.92l-.37,1.83h.44l.45-2.2H99"/><path class="cls-1" d="M109,23.16a3.74,3.74,0,0,0-1.76.36,1.32,1.32,0,0,0-.72.87.76.76,0,0,0,.36.84,2.91,2.91,0,0,0,1.61.36,3.77,3.77,0,0,0,1.76-.36,1.34,1.34,0,0,0,.72-.84.8.8,0,0,0-.36-.87,2.91,2.91,0,0,0-1.61-.36m-.08.37a2.59,2.59,0,0,1,1.28.24.56.56,0,0,1,.32.62A.86.86,0,0,1,110,25a3.17,3.17,0,0,1-1.39.25A2.58,2.58,0,0,1,107.3,25a.51.51,0,0,1-.3-.58.88.88,0,0,1,.55-.62,3.49,3.49,0,0,1,1.4-.24m-3.48,2.83-.08.37h5.78l.08-.37h-5.78m.94.92h-.33l-.39,1.88H110l.07-.36H106.2l.28-1.32a.08.08,0,0,1,0-.06s0,0,0,0a.27.27,0,0,0,0-.08s-.06,0-.15,0"/><path class="cls-1" d="M116.13,23.31l-.08.38h2a2.11,2.11,0,0,1-1,1.06,4.4,4.4,0,0,1-1.64.63l.17.4a5.7,5.7,0,0,0,1.48-.61,3.33,3.33,0,0,0,1-.86,1.65,1.65,0,0,0,.66.86,3.11,3.11,0,0,0,1.25.61l.32-.4a2.82,2.82,0,0,1-1.45-.65,1.12,1.12,0,0,1-.42-1h2l.08-.38h-4.4m-1.35,3.13-.08.37h2.66l-.52,2.5h.47l.52-2.5h2.65l.08-.37h-5.78"/><path class="cls-1" d="M124.41,23.53A2.39,2.39,0,0,0,123,24a1.73,1.73,0,0,0-.65,1,1.12,1.12,0,0,0,.23,1,1.52,1.52,0,0,0,1.24.44,2.15,2.15,0,0,0,1.4-.44,1.54,1.54,0,0,0,.64-1,1.09,1.09,0,0,0-.21-1,1.63,1.63,0,0,0-1.22-.42m-.08.36a1.16,1.16,0,0,1,.9.31.8.8,0,0,1,.16.77,1.22,1.22,0,0,1-.48.78,1.68,1.68,0,0,1-1,.31,1.27,1.27,0,0,1-.93-.31.85.85,0,0,1-.15-.78,1.43,1.43,0,0,1,.48-.77,1.76,1.76,0,0,1,1-.31m2.73-.73h0l-1.28,6.15h.45l1.24-5.94a.15.15,0,0,1,0-.06s0,0,0-.06,0-.06,0-.06a.22.22,0,0,0-.14,0h-.35m-5.73,4.53h0v.37c0,.08,0,.13,0,.13s.06,0,.1,0l.08-.05.14,0c.74,0,1.39,0,2-.07.76-.05,1.43-.1,2-.18l0-.36c-.56.08-1.27.13-2.1.18s-1.56,0-2.26,0"/><path class="cls-1" d="M130.44,23.55h0l-.06.36h1.78l.06-.36h-1.78m-1.27,1h0l-.08.36H133l.08-.36h-3.91m1.78.88h0a1.81,1.81,0,0,0-1.2.39,1.48,1.48,0,0,0-.55.89,1,1,0,0,0,.19.87,1.2,1.2,0,0,0,1,.39,1.8,1.8,0,0,0,1.19-.39,1.5,1.5,0,0,0,.56-.87,1,1,0,0,0-.2-.89,1.19,1.19,0,0,0-1-.39m-.07.34h0a.85.85,0,0,1,.71.28.74.74,0,0,1,.15.64,1,1,0,0,1-.41.64,1.31,1.31,0,0,1-.84.28.85.85,0,0,1-.72-.28.73.73,0,0,1-.13-.64A1.1,1.1,0,0,1,130,26a1.32,1.32,0,0,1,.85-.28m3.46-2.59h-.28l-1.28,6.15h.46l.64-3.14H135l.08-.37H134l.5-2.38a.13.13,0,0,0,0-.08s0,0,.05-.06,0-.08,0-.09-.08,0-.21,0"/><path class="cls-1" d="M137.75,24a.76.76,0,0,1,.75.54,1.94,1.94,0,0,1,.05,1.21,2.76,2.76,0,0,1-.55,1.21,1.22,1.22,0,0,1-1,.54.78.78,0,0,1-.78-.54,2.11,2.11,0,0,1,0-1.21,3.05,3.05,0,0,1,.53-1.21,1.29,1.29,0,0,1,1-.54m.09-.39a1.81,1.81,0,0,0-1.39.66,3.29,3.29,0,0,0-.7,1.48,2.5,2.5,0,0,0,.08,1.49,1.15,1.15,0,0,0,1.12.66,1.75,1.75,0,0,0,1.35-.66,3,3,0,0,0,.73-1.49,2.13,2.13,0,0,0-.11-1.48,1.09,1.09,0,0,0-1.08-.66m1.38,1.22h0l-.09.38h1.5l-.22,1.11h-1.5l-.08.39h1.5l-.56,2.62h.45l1.25-5.95a.06.06,0,0,1,0-.05s0,0,0-.06,0-.06,0-.06-.05,0-.13,0h-.36l-.34,1.65h-1.5"/><path class="cls-1" d="M145,24a.77.77,0,0,1,.77.53,2,2,0,0,1,.05,1.22,2.88,2.88,0,0,1-.55,1.21,1.23,1.23,0,0,1-1,.54.76.76,0,0,1-.77-.54,2,2,0,0,1,0-1.21,3.16,3.16,0,0,1,.53-1.22,1.24,1.24,0,0,1,1-.53m.1-.39a1.8,1.8,0,0,0-1.38.66,3.12,3.12,0,0,0-.72,1.48,2.34,2.34,0,0,0,.1,1.49,1.14,1.14,0,0,0,1.11.65,1.77,1.77,0,0,0,1.36-.65,3,3,0,0,0,.73-1.49,2.18,2.18,0,0,0-.11-1.48,1.11,1.11,0,0,0-1.09-.66m3.37-.43h-.36l-1.28,6.15h.46l.45-2.25h1l.09-.37h-1l.27-1.28h1l.08-.4h-1l.32-1.59a.41.41,0,0,0,0-.08.12.12,0,0,0,.05-.08s.05-.06,0-.07,0,0-.14,0"/><path class="cls-1" d="M153.84,23.23h0l-.07.36h1.78l.08-.36h-1.79m-1.23.79h0l-.08.36h3.91l.08-.36h-3.91m1.81.65h0a2.15,2.15,0,0,0-1.15.28,1,1,0,0,0-.52.68.61.61,0,0,0,.23.65,1.59,1.59,0,0,0,1.05.28,2.2,2.2,0,0,0,1.17-.28,1.05,1.05,0,0,0,.52-.65.67.67,0,0,0-.24-.68,1.72,1.72,0,0,0-1.06-.28m-.06.36h0a1.58,1.58,0,0,1,.75.14.39.39,0,0,1,.17.46.62.62,0,0,1-.36.42,1.7,1.7,0,0,1-.81.15,1.27,1.27,0,0,1-.75-.15.35.35,0,0,1-.17-.42.62.62,0,0,1,.36-.46,1.87,1.87,0,0,1,.81-.14m3-1.87h0l-.72,3.42h.46l.23-1.16h1l.09-.39h-1l.35-1.65,0-.08c0-.05,0-.1,0-.11s0,0-.15,0h-.34m-.91,4.34-.25,1.19H153l.25-1.19h3.23m-3.62-.39-.44,2.12h.47l0-.15h3.24l0,.15h.45l.44-2.12h-4.16"/><polygon class="cls-1" points="159 28.75 159.63 28.75 159.75 28.13 159.13 28.13 159 28.75"/><path class="cls-1" d="M2.47,73.83a1.75,1.75,0,0,1-.63.4,1.64,1.64,0,0,1-.62.13,1.1,1.1,0,0,1-.83-.3,1,1,0,0,1-.3-.75,1.06,1.06,0,0,1,.14-.54,1.2,1.2,0,0,1,.36-.38,1.82,1.82,0,0,1,.57-.2A5.09,5.09,0,0,1,2,72.13,3.28,3.28,0,0,0,2.8,72a2.15,2.15,0,0,0,.08-.42.44.44,0,0,0-.18-.35,1,1,0,0,0-.62-.17,1.21,1.21,0,0,0-.64.17,1,1,0,0,0-.36.5l-.63-.06a1.68,1.68,0,0,1,.6-.83,1.79,1.79,0,0,1,1.06-.29,1.66,1.66,0,0,1,1.08.33.72.72,0,0,1,.29.62,2.88,2.88,0,0,1-.09.67l-.2.91a3.87,3.87,0,0,0-.1.7,3.76,3.76,0,0,0,.08.5H2.55a2,2,0,0,1-.08-.45m.23-1.39a1.36,1.36,0,0,1-.28.08l-.5.06a4.28,4.28,0,0,0-.76.12.73.73,0,0,0-.35.24.55.55,0,0,0-.11.34.63.63,0,0,0,.18.44.75.75,0,0,0,.53.17A1.07,1.07,0,0,0,2,73.73a1.08,1.08,0,0,0,.46-.46,2.71,2.71,0,0,0,.26-.83"/><path class="cls-1" d="M4,74.28l.77-3.64h.54l-.15.74a2.76,2.76,0,0,1,.54-.63.94.94,0,0,1,.57-.2,1,1,0,0,1,.45.14l-.27.58a.53.53,0,0,0-.34-.13,1,1,0,0,0-.67.38,2.48,2.48,0,0,0-.53,1.29l-.31,1.47H4"/><path class="cls-1" d="M9.16,73.05l.61.06a1.72,1.72,0,0,1-.6.84,1.66,1.66,0,0,1-1.12.41,1.49,1.49,0,0,1-.75-.19,1.33,1.33,0,0,1-.52-.53,2,2,0,0,1-.17-.83,2.5,2.5,0,0,1,.28-1.15,1.86,1.86,0,0,1,.72-.83,1.73,1.73,0,0,1,1-.28,1.41,1.41,0,0,1,1,.4A1.49,1.49,0,0,1,10,72.06a3.56,3.56,0,0,1,0,.55H7.25v.2a1.21,1.21,0,0,0,.23.78.74.74,0,0,0,.57.27,1,1,0,0,0,.62-.2,1.36,1.36,0,0,0,.49-.61m-1.8-.91H9.41V72a1,1,0,0,0-.24-.72A.76.76,0,0,0,8.58,71a1.1,1.1,0,0,0-.74.28,1.81,1.81,0,0,0-.48.83"/><path class="cls-1" d="M15,73.83a1.81,1.81,0,0,1-.62.4,1.73,1.73,0,0,1-.63.13,1.12,1.12,0,0,1-.83-.3,1,1,0,0,1-.29-.75,1,1,0,0,1,.14-.54,1.1,1.1,0,0,1,.36-.38,1.68,1.68,0,0,1,.56-.2,5.14,5.14,0,0,1,.8-.06,3.19,3.19,0,0,0,.84-.13,1.59,1.59,0,0,0,.08-.42.46.46,0,0,0-.17-.35,1.1,1.1,0,0,0-.63-.17,1.21,1.21,0,0,0-.64.17,1,1,0,0,0-.36.5L13,71.67a1.61,1.61,0,0,1,.59-.83,1.79,1.79,0,0,1,1.06-.29,1.66,1.66,0,0,1,1.08.33.72.72,0,0,1,.3.62,2.47,2.47,0,0,1-.1.67l-.2.91a3.7,3.7,0,0,0-.09.7,3.39,3.39,0,0,0,.07.5h-.62a2.88,2.88,0,0,1-.08-.45m.24-1.39a1.71,1.71,0,0,1-.29.08l-.5.06a4.28,4.28,0,0,0-.76.12.73.73,0,0,0-.35.24.61.61,0,0,0-.1.34.62.62,0,0,0,.17.44.75.75,0,0,0,.53.17,1.13,1.13,0,0,0,.58-.16,1.11,1.11,0,0,0,.45-.46,3,3,0,0,0,.27-.83"/><path class="cls-1" d="M19.05,73.75a1.49,1.49,0,0,1-1.11.61,1.12,1.12,0,0,1-.86-.38,1.56,1.56,0,0,1-.34-1.11A2.79,2.79,0,0,1,17,71.66a2.31,2.31,0,0,1,.69-.83,1.41,1.41,0,0,1,.83-.28,1.09,1.09,0,0,1,1,.65l.42-2h.61l-1,5h-.58l.11-.53m-1.71-1a2.19,2.19,0,0,0,.08.61.9.9,0,0,0,.25.36.78.78,0,0,0,.46.14.92.92,0,0,0,.75-.44A2.22,2.22,0,0,0,19.34,72a.9.9,0,0,0-.23-.67.69.69,0,0,0-.56-.25.77.77,0,0,0-.41.11,1.1,1.1,0,0,0-.37.33,2.31,2.31,0,0,0-.3.61,2,2,0,0,0-.13.64"/><path class="cls-1" d="M21.53,74.28l-.59-3.64h.59l.31,2c.05.22.08.58.13,1.08a9.93,9.93,0,0,1,.47-.89l1.22-2.19h.65l-2.09,3.64h-.69"/><path class="cls-1" d="M25.11,70l.16-.7h.61l-.15.7Zm-.91,4.33L25,70.64h.62l-.76,3.64H24.2"/><path class="cls-1" d="M26,73l.61,0a1.45,1.45,0,0,0,.08.45.73.73,0,0,0,.31.32,1.21,1.21,0,0,0,.52.12,1,1,0,0,0,.63-.17.49.49,0,0,0,.2-.39.47.47,0,0,0-.13-.3,1.56,1.56,0,0,0-.62-.36c-.33-.14-.53-.25-.63-.29a1.29,1.29,0,0,1-.36-.33,1,1,0,0,1-.11-.44.93.93,0,0,1,.35-.75,1.43,1.43,0,0,1,1-.31,1.48,1.48,0,0,1,1,.33,1.1,1.1,0,0,1,.38.82l-.61,0a.76.76,0,0,0-.23-.52.88.88,0,0,0-.63-.2.68.68,0,0,0-.5.16.41.41,0,0,0-.17.31.41.41,0,0,0,.14.3,3.54,3.54,0,0,0,.53.28,4,4,0,0,1,.91.48.92.92,0,0,1,.29.71,1,1,0,0,1-.17.53,1.09,1.09,0,0,1-.5.4,1.86,1.86,0,0,1-.81.16,1.91,1.91,0,0,1-1.08-.31A1.11,1.11,0,0,1,26,73"/><path class="cls-1" d="M32.22,73.05l.61.06a1.88,1.88,0,0,1-1.72,1.25,1.49,1.49,0,0,1-.75-.19,1.33,1.33,0,0,1-.52-.53,2.11,2.11,0,0,1-.17-.83A2.63,2.63,0,0,1,30,71.66a1.92,1.92,0,0,1,.72-.83,1.73,1.73,0,0,1,1-.28,1.43,1.43,0,0,1,1,.4,1.53,1.53,0,0,1,.39,1.11,3.62,3.62,0,0,1,0,.55H30.31v.2a1.16,1.16,0,0,0,.24.78.71.71,0,0,0,.56.27,1,1,0,0,0,.62-.2,1.36,1.36,0,0,0,.49-.61m-1.8-.91h2V72a1,1,0,0,0-.24-.72.75.75,0,0,0-.59-.25,1.1,1.1,0,0,0-.73.28,1.74,1.74,0,0,0-.49.83"/><path class="cls-1" d="M36,73.75a1.49,1.49,0,0,1-1.11.61,1.12,1.12,0,0,1-.86-.38,1.56,1.56,0,0,1-.35-1.11A2.79,2.79,0,0,1,34,71.66a2.31,2.31,0,0,1,.69-.83,1.38,1.38,0,0,1,.82-.28,1.09,1.09,0,0,1,1,.65l.42-2h.61l-1.05,5h-.57l.11-.53m-1.71-1a1.87,1.87,0,0,0,.08.61.9.9,0,0,0,.25.36.77.77,0,0,0,.45.14.92.92,0,0,0,.75-.44A2.17,2.17,0,0,0,36.31,72a.94.94,0,0,0-.23-.67.69.69,0,0,0-.56-.25.72.72,0,0,0-.41.11,1.12,1.12,0,0,0-.38.33,2.31,2.31,0,0,0-.29.61,2,2,0,0,0-.13.64"/><path class="cls-1" d="M41.11,73.78l-.11.5a1.22,1.22,0,0,1-.42.06.93.93,0,0,1-.6-.18.47.47,0,0,1-.17-.38,3.2,3.2,0,0,1,.1-.55l.43-2.12h-.48l.09-.47h.5l.19-.91.7-.42-.28,1.33h.63l-.11.47H41l-.42,2c0,.26-.08.42-.08.46a.22.22,0,0,0,.06.18.37.37,0,0,0,.2,0,2.09,2.09,0,0,0,.38,0"/><path class="cls-1" d="M41.84,72.89a2.58,2.58,0,0,1,.63-1.77,1.71,1.71,0,0,1,1.36-.57,1.39,1.39,0,0,1,1.06.42,1.49,1.49,0,0,1,.41,1.11A2.72,2.72,0,0,1,45,73.25a1.94,1.94,0,0,1-.72.83,1.86,1.86,0,0,1-1.76.11,1.27,1.27,0,0,1-.53-.52,1.76,1.76,0,0,1-.18-.78m.63-.06a1.22,1.22,0,0,0,.23.79.85.85,0,0,0,.64.27,1.06,1.06,0,0,0,.4-.08,1,1,0,0,0,.35-.25,1.76,1.76,0,0,0,.29-.37,2.89,2.89,0,0,0,.2-.47,1.87,1.87,0,0,0,.11-.64,1.07,1.07,0,0,0-.25-.77.81.81,0,0,0-.63-.28,1.11,1.11,0,0,0-.54.14,1.87,1.87,0,0,0-.44.41,1.76,1.76,0,0,0-.28.62,3.28,3.28,0,0,0-.08.63"/><path class="cls-1" d="M47.83,74.28l.76-3.64h.61l-.12.59a2.64,2.64,0,0,1,.61-.53,1.18,1.18,0,0,1,.61-.15.89.89,0,0,1,.56.18.8.8,0,0,1,.3.5,1.91,1.91,0,0,1,.57-.51,1.41,1.41,0,0,1,.66-.17,1,1,0,0,1,.69.22.79.79,0,0,1,.23.61,4,4,0,0,1-.08.56l-.5,2.34h-.62l.5-2.4a2.38,2.38,0,0,0,.08-.43.34.34,0,0,0-.13-.28.39.39,0,0,0-.31-.11,1.36,1.36,0,0,0-.58.17,1.22,1.22,0,0,0-.44.46,2.91,2.91,0,0,0-.28.83l-.37,1.76H50l.51-2.47a1.57,1.57,0,0,0,.05-.34.39.39,0,0,0-.11-.3.38.38,0,0,0-.29-.11,1.36,1.36,0,0,0-.57.17,1.5,1.5,0,0,0-.47.47,3.46,3.46,0,0,0-.28.86l-.37,1.72h-.61"/><path class="cls-1" d="M56.24,73.83a1.94,1.94,0,0,1-.63.4,1.68,1.68,0,0,1-.62.13,1.09,1.09,0,0,1-.83-.3,1,1,0,0,1-.3-.75,1.06,1.06,0,0,1,.14-.54,1.1,1.1,0,0,1,.36-.38,1.76,1.76,0,0,1,.56-.2,5.26,5.26,0,0,1,.8-.06,3.19,3.19,0,0,0,.84-.13,1.59,1.59,0,0,0,.08-.42.43.43,0,0,0-.17-.35,1.05,1.05,0,0,0-.63-.17,1.27,1.27,0,0,0-.64.17,1,1,0,0,0-.36.5l-.62-.06a1.66,1.66,0,0,1,.59-.83,1.8,1.8,0,0,1,1.07-.29,1.61,1.61,0,0,1,1.07.33.7.7,0,0,1,.3.62,2.88,2.88,0,0,1-.09.67l-.21.91a3.7,3.7,0,0,0-.09.7,2.6,2.6,0,0,0,.08.5h-.63a2.13,2.13,0,0,1-.07-.45m.23-1.39a1.58,1.58,0,0,1-.28.08l-.5.06a4.44,4.44,0,0,0-.77.12.71.71,0,0,0-.34.24.55.55,0,0,0-.11.34.62.62,0,0,0,.17.44.78.78,0,0,0,.53.17,1.19,1.19,0,0,0,1-.62,2.69,2.69,0,0,0,.27-.83"/><path class="cls-1" d="M57.8,74.28l.76-3.64h.57l-.15.63a3.29,3.29,0,0,1,.69-.55,1.47,1.47,0,0,1,.66-.17.93.93,0,0,1,.69.25.82.82,0,0,1,.26.64,3.62,3.62,0,0,1-.09.64l-.47,2.2h-.63L60.58,72a2.6,2.6,0,0,0,.08-.5.39.39,0,0,0-.13-.28.49.49,0,0,0-.36-.13,1.19,1.19,0,0,0-.86.35,2.36,2.36,0,0,0-.54,1.17l-.35,1.7H57.8"/><path class="cls-1" d="M64.48,73.05l.61.06a1.63,1.63,0,0,1-.59.84,1.67,1.67,0,0,1-1.13.41,1.48,1.48,0,0,1-.74-.19,1.27,1.27,0,0,1-.52-.53,2,2,0,0,1-.17-.83,2.5,2.5,0,0,1,.28-1.15,1.86,1.86,0,0,1,.72-.83,1.7,1.7,0,0,1,1-.28,1.41,1.41,0,0,1,1,.4,1.49,1.49,0,0,1,.39,1.11,3.56,3.56,0,0,1,0,.55H62.58v.2a1.21,1.21,0,0,0,.23.78.73.73,0,0,0,.56.27,1.07,1.07,0,0,0,.63-.2,1.41,1.41,0,0,0,.48-.61m-1.79-.91h2V72a1,1,0,0,0-.23-.72.78.78,0,0,0-.59-.25,1.1,1.1,0,0,0-.74.28,1.72,1.72,0,0,0-.48.83"/><path class="cls-1" d="M68.33,73.62a1.86,1.86,0,0,1-1.35.74,1,1,0,0,1-.68-.24.78.78,0,0,1-.25-.59,4.49,4.49,0,0,1,.12-.8l.44-2.09h.61L66.73,73a2.42,2.42,0,0,0-.06.45.45.45,0,0,0,.13.33.5.5,0,0,0,.37.11,1.25,1.25,0,0,0,.52-.13,1.28,1.28,0,0,0,.42-.34,1.73,1.73,0,0,0,.3-.52,5,5,0,0,0,.17-.65l.33-1.58h.62l-.76,3.64h-.58l.14-.66"/><path class="cls-1" d="M70.78,74.28l-.59-3.64h.59l.31,2c0,.22.08.58.13,1.08a9.93,9.93,0,0,1,.47-.89l1.22-2.19h.65l-2.09,3.64h-.69"/><path class="cls-1" d="M76.16,73.05l.61.06a1.72,1.72,0,0,1-.6.84,1.66,1.66,0,0,1-1.12.41,1.49,1.49,0,0,1-.75-.19,1.33,1.33,0,0,1-.52-.53,2,2,0,0,1-.17-.83,2.5,2.5,0,0,1,.28-1.15,1.86,1.86,0,0,1,.72-.83,1.73,1.73,0,0,1,1-.28,1.41,1.41,0,0,1,1,.4A1.49,1.49,0,0,1,77,72.06a3.56,3.56,0,0,1,0,.55H74.25v.2a1.21,1.21,0,0,0,.23.78.74.74,0,0,0,.57.27,1,1,0,0,0,.62-.2,1.36,1.36,0,0,0,.49-.61m-1.8-.91h2V72a1,1,0,0,0-.24-.72.76.76,0,0,0-.59-.25,1.1,1.1,0,0,0-.74.28,1.81,1.81,0,0,0-.48.83"/><path class="cls-1" d="M77.5,74.28l.77-3.64h.54l-.15.74a2.54,2.54,0,0,1,.54-.63.94.94,0,0,1,.57-.2,1,1,0,0,1,.45.14l-.27.58a.58.58,0,0,0-.34-.13,1,1,0,0,0-.67.38,2.48,2.48,0,0,0-.53,1.29l-.32,1.47H77.5"/><path class="cls-1" d="M82.72,74.28l-.38-3.64h.6l.17,1.63.06.92a3.94,3.94,0,0,0,0,.42c.08-.23.12-.41.17-.53s.13-.31.23-.55l.88-1.89h.67l.13,1.81c0,.28,0,.66,0,1.11.11-.29.29-.72.56-1.26l.78-1.66h.63l-1.78,3.64h-.66l-.14-2.14c0-.14,0-.39,0-.78-.09.25-.2.52-.33.8l-1,2.12h-.66"/><path class="cls-1" d="M88.09,70l.16-.7h.61l-.14.7Zm-.9,4.33L88,70.64h.63l-.77,3.64h-.62"/><path class="cls-1" d="M90.34,73.78l-.1.5a1.31,1.31,0,0,1-.43.06.89.89,0,0,1-.59-.18.45.45,0,0,1-.17-.38,4,4,0,0,1,.09-.55l.44-2.12h-.49l.1-.47h.5l.19-.91.7-.42-.28,1.33h.62l-.11.47H90.2l-.42,2c0,.26-.08.42-.08.46a.23.23,0,0,0,.07.18.35.35,0,0,0,.2,0,2,2,0,0,0,.37,0"/><path class="cls-1" d="M91,74.28l1-5h.62l-.4,1.94a2.19,2.19,0,0,1,.64-.49,1.29,1.29,0,0,1,.62-.15.94.94,0,0,1,.7.25.75.75,0,0,1,.25.62,3.58,3.58,0,0,1-.11.71l-.45,2.15h-.62l.47-2.2a5,5,0,0,0,.09-.61.39.39,0,0,0-.13-.28.43.43,0,0,0-.34-.13,1.32,1.32,0,0,0-.66.19,1.12,1.12,0,0,0-.46.48,4.23,4.23,0,0,0-.32,1l-.33,1.56H91"/><path class="cls-1" d="M99.58,73l.62.06a2,2,0,0,1-.67,1,1.54,1.54,0,0,1-1,.33,1.33,1.33,0,0,1-1-.38,1.48,1.48,0,0,1-.37-1.07,3.3,3.3,0,0,1,.23-1.18,2,2,0,0,1,.69-.87,1.77,1.77,0,0,1,1-.31,1.29,1.29,0,0,1,.94.34,1.17,1.17,0,0,1,.34.88l-.61,0a.65.65,0,0,0-.2-.53.67.67,0,0,0-.52-.21,1,1,0,0,0-.65.24A1.48,1.48,0,0,0,98,72a2.89,2.89,0,0,0-.16.93,1.06,1.06,0,0,0,.21.71.68.68,0,0,0,.51.23.87.87,0,0,0,.58-.23,1.6,1.6,0,0,0,.44-.71"/><path class="cls-1" d="M103.14,73.83a1.81,1.81,0,0,1-.62.4,1.73,1.73,0,0,1-.63.13,1.12,1.12,0,0,1-.83-.3,1,1,0,0,1-.29-.75,1,1,0,0,1,.14-.54,1.1,1.1,0,0,1,.36-.38,1.68,1.68,0,0,1,.56-.2,5.14,5.14,0,0,1,.8-.06,3.19,3.19,0,0,0,.84-.13,1.59,1.59,0,0,0,.08-.42.46.46,0,0,0-.17-.35,1.1,1.1,0,0,0-.63-.17,1.21,1.21,0,0,0-.64.17,1,1,0,0,0-.36.5l-.62-.06a1.61,1.61,0,0,1,.59-.83,1.79,1.79,0,0,1,1.06-.29,1.66,1.66,0,0,1,1.08.33.72.72,0,0,1,.3.62,2.47,2.47,0,0,1-.1.67l-.2.91a3.7,3.7,0,0,0-.09.7,3.39,3.39,0,0,0,.07.5h-.62a2.88,2.88,0,0,1-.08-.45m.24-1.39a1.71,1.71,0,0,1-.29.08l-.5.06a4.28,4.28,0,0,0-.76.12.73.73,0,0,0-.35.24.61.61,0,0,0-.1.34.62.62,0,0,0,.17.44.75.75,0,0,0,.53.17,1.13,1.13,0,0,0,.58-.16,1.11,1.11,0,0,0,.45-.46,3,3,0,0,0,.27-.83"/><path class="cls-1" d="M107.19,73.62a1.86,1.86,0,0,1-1.35.74,1,1,0,0,1-.68-.24.75.75,0,0,1-.25-.59,4.49,4.49,0,0,1,.12-.8l.44-2.09h.61L105.59,73a2.42,2.42,0,0,0-.06.45.45.45,0,0,0,.13.33.48.48,0,0,0,.37.11,1.25,1.25,0,0,0,.52-.13,1.28,1.28,0,0,0,.42-.34,1.73,1.73,0,0,0,.3-.52c0-.12.1-.34.17-.65l.33-1.58h.62l-.77,3.64h-.57l.14-.66"/><path class="cls-1" d="M110.17,73.78l-.11.5a1.22,1.22,0,0,1-.42.06.89.89,0,0,1-.59-.18.45.45,0,0,1-.17-.38,4,4,0,0,1,.09-.55l.44-2.12h-.49l.1-.47h.5l.18-.91.71-.42-.28,1.33h.62l-.11.47H110l-.42,2c0,.26-.08.42-.08.46a.26.26,0,0,0,.06.18.39.39,0,0,0,.21,0,2.05,2.05,0,0,0,.37,0"/><path class="cls-1" d="M111.67,70l.16-.7h.61l-.14.7Zm-.9,4.33.76-3.64h.63l-.77,3.64h-.62"/><path class="cls-1" d="M112.58,72.89a2.57,2.57,0,0,1,.62-1.77,1.73,1.73,0,0,1,1.36-.57,1.42,1.42,0,0,1,1.07.42,1.52,1.52,0,0,1,.4,1.11,2.71,2.71,0,0,1-.26,1.17,2.08,2.08,0,0,1-.72.83,1.9,1.9,0,0,1-1,.28,1.85,1.85,0,0,1-.78-.17,1.39,1.39,0,0,1-.53-.52,1.76,1.76,0,0,1-.17-.78m.62-.06a1.17,1.17,0,0,0,.24.79.82.82,0,0,0,.64.27,1,1,0,0,0,.39-.08,1.11,1.11,0,0,0,.36-.25,1.72,1.72,0,0,0,.28-.37,1.8,1.8,0,0,0,.2-.47,1.87,1.87,0,0,0,.11-.64,1.07,1.07,0,0,0-.25-.77.79.79,0,0,0-.62-.28,1.12,1.12,0,0,0-.55.14,1.87,1.87,0,0,0-.44.41,2,2,0,0,0-.28.62,3.28,3.28,0,0,0-.08.63"/><path class="cls-1" d="M116.5,74.28l.77-3.64h.56l-.14.63a3.05,3.05,0,0,1,.69-.55,1.4,1.4,0,0,1,.65-.17.91.91,0,0,1,.69.25.82.82,0,0,1,.26.64,3.62,3.62,0,0,1-.09.64l-.47,2.2h-.62l.48-2.31a2.6,2.6,0,0,0,.08-.5.39.39,0,0,0-.13-.28.47.47,0,0,0-.35-.13,1.19,1.19,0,0,0-.86.35,2.28,2.28,0,0,0-.55,1.17l-.34,1.7h-.63"/><path class="cls-1" d="M123.27,74.28l-.38-3.64h.59l.18,1.63.06.92c0,.08,0,.22,0,.42.08-.23.13-.41.18-.53a5.21,5.21,0,0,1,.23-.55l.88-1.89h.67l.12,1.81c0,.28,0,.66,0,1.11.11-.29.3-.72.57-1.26l.78-1.66h.62L126,74.28h-.66l-.14-2.14c0-.14,0-.39,0-.78-.1.25-.2.52-.33.8l-1,2.12h-.65"/><path class="cls-1" d="M127.77,74.28l1-5h.63L129,71.19a2.48,2.48,0,0,1,.64-.49,1.3,1.3,0,0,1,.63-.15,1,1,0,0,1,.7.25.79.79,0,0,1,.25.62,3.58,3.58,0,0,1-.11.71l-.45,2.15h-.63l.47-2.2a5,5,0,0,0,.09-.61.38.38,0,0,0-.12-.28.46.46,0,0,0-.34-.13,1.27,1.27,0,0,0-.66.19,1.21,1.21,0,0,0-.47.48,3.87,3.87,0,0,0-.31,1l-.33,1.56h-.62"/><path class="cls-1" d="M134.45,73.05l.61.06a1.69,1.69,0,0,1-.59.84,1.67,1.67,0,0,1-1.13.41,1.55,1.55,0,0,1-.75-.19,1.3,1.3,0,0,1-.51-.53,2,2,0,0,1-.17-.83,2.5,2.5,0,0,1,.28-1.15,1.86,1.86,0,0,1,.72-.83,1.7,1.7,0,0,1,1-.28,1.41,1.41,0,0,1,1,.4,1.49,1.49,0,0,1,.39,1.11,2.68,2.68,0,0,1-.05.55h-2.68v.2a1.21,1.21,0,0,0,.23.78.73.73,0,0,0,.56.27,1.07,1.07,0,0,0,.63-.2,1.41,1.41,0,0,0,.48-.61m-1.79-.91h2V72a1,1,0,0,0-.23-.72.78.78,0,0,0-.59-.25,1.1,1.1,0,0,0-.74.28,1.72,1.72,0,0,0-.48.83"/><path class="cls-1" d="M135.81,74.28l.77-3.64h.56l-.14.63a3.05,3.05,0,0,1,.69-.55,1.47,1.47,0,0,1,.65-.17.91.91,0,0,1,.69.25.83.83,0,0,1,.27.64,3,3,0,0,1-.1.64l-.47,2.2h-.62l.48-2.31a2.6,2.6,0,0,0,.08-.5.38.38,0,0,0-.12-.28.51.51,0,0,0-.36-.13,1.19,1.19,0,0,0-.86.35,2.36,2.36,0,0,0-.55,1.17l-.34,1.7h-.63"/><path class="cls-1" d="M144.34,73.83a1.81,1.81,0,0,1-.62.4,1.69,1.69,0,0,1-.63.13,1.08,1.08,0,0,1-.82-.3,1,1,0,0,1-.3-.75,1.06,1.06,0,0,1,.14-.54,1.1,1.1,0,0,1,.36-.38,1.76,1.76,0,0,1,.56-.2,5.26,5.26,0,0,1,.8-.06,3.19,3.19,0,0,0,.84-.13,1.59,1.59,0,0,0,.08-.42.43.43,0,0,0-.17-.35,1.08,1.08,0,0,0-.63-.17,1.24,1.24,0,0,0-.64.17,1,1,0,0,0-.36.5l-.62-.06a1.66,1.66,0,0,1,.59-.83,1.79,1.79,0,0,1,1.06-.29,1.62,1.62,0,0,1,1.08.33.7.7,0,0,1,.3.62,2.88,2.88,0,0,1-.09.67l-.21.91a3.7,3.7,0,0,0-.09.7,2.6,2.6,0,0,0,.08.5h-.63a2.88,2.88,0,0,1-.08-.45m.24-1.39a1.58,1.58,0,0,1-.28.08l-.5.06a4.44,4.44,0,0,0-.77.12.71.71,0,0,0-.34.24.55.55,0,0,0-.11.34.62.62,0,0,0,.17.44.78.78,0,0,0,.53.17,1.13,1.13,0,0,0,.58-.16,1.11,1.11,0,0,0,.45-.46,2.69,2.69,0,0,0,.27-.83"/><path class="cls-1" d="M145.61,75.67l1.06-5h.58l-.11.5a1.9,1.9,0,0,1,.56-.45,1.06,1.06,0,0,1,.54-.14,1.08,1.08,0,0,1,.87.39,1.54,1.54,0,0,1,.34,1.08,2.84,2.84,0,0,1-.18,1,2.29,2.29,0,0,1-.47.75,2.21,2.21,0,0,1-.56.42,1.47,1.47,0,0,1-.57.13,1.1,1.1,0,0,1-1-.66l-.42,2h-.63m1.23-2.87a1.51,1.51,0,0,0,.07.56.76.76,0,0,0,.26.36.86.86,0,0,0,.47.14,1,1,0,0,0,.86-.59,2.63,2.63,0,0,0,.33-1.25,1.09,1.09,0,0,0-.22-.71.69.69,0,0,0-.55-.26.85.85,0,0,0-.43.12,1.06,1.06,0,0,0-.38.38,2.67,2.67,0,0,0-.3.61,2.26,2.26,0,0,0-.11.64"/><path class="cls-1" d="M149.63,75.67l1.06-5h.58l-.11.5a1.9,1.9,0,0,1,.56-.45,1,1,0,0,1,.53-.14,1.1,1.1,0,0,1,.88.39,1.54,1.54,0,0,1,.34,1.08,2.64,2.64,0,0,1-.19,1,2.14,2.14,0,0,1-.47.75,1.91,1.91,0,0,1-.56.42,1.43,1.43,0,0,1-.56.13,1.12,1.12,0,0,1-1-.66l-.42,2h-.62m1.23-2.87a1.84,1.84,0,0,0,.06.56.78.78,0,0,0,.27.36.84.84,0,0,0,.47.14,1,1,0,0,0,.86-.59,2.73,2.73,0,0,0,.32-1.25,1.09,1.09,0,0,0-.21-.71.71.71,0,0,0-.55-.26.86.86,0,0,0-.44.12,1,1,0,0,0-.37.38,2.67,2.67,0,0,0-.3.61,2,2,0,0,0-.11.64"/><path class="cls-1" d="M154,74.28l.77-3.64h.55l-.16.74a2.55,2.55,0,0,1,.55-.63.9.9,0,0,1,.56-.2,1,1,0,0,1,.45.14l-.26.58a.58.58,0,0,0-.35-.13,1,1,0,0,0-.67.38,2.57,2.57,0,0,0-.53,1.29l-.31,1.47H154"/><path class="cls-1" d="M156.52,72.89a2.57,2.57,0,0,1,.62-1.77,1.71,1.71,0,0,1,1.36-.57,1.39,1.39,0,0,1,1.06.42,1.49,1.49,0,0,1,.41,1.11,2.72,2.72,0,0,1-.27,1.17,1.94,1.94,0,0,1-.72.83,1.86,1.86,0,0,1-1.76.11,1.27,1.27,0,0,1-.53-.52,1.76,1.76,0,0,1-.17-.78m.62-.06a1.22,1.22,0,0,0,.23.79.86.86,0,0,0,.65.27,1,1,0,0,0,.39-.08,1.11,1.11,0,0,0,.36-.25,2.11,2.11,0,0,0,.28-.37,2.89,2.89,0,0,0,.2-.47,1.87,1.87,0,0,0,.11-.64,1.07,1.07,0,0,0-.25-.77.81.81,0,0,0-.63-.28,1.11,1.11,0,0,0-.54.14,1.87,1.87,0,0,0-.44.41,1.76,1.76,0,0,0-.28.62,3.28,3.28,0,0,0-.08.63"/><path class="cls-1" d="M162.89,73.83a1.81,1.81,0,0,1-.62.4,1.73,1.73,0,0,1-.63.13,1.12,1.12,0,0,1-.83-.3,1,1,0,0,1-.29-.75,1,1,0,0,1,.14-.54,1.1,1.1,0,0,1,.36-.38,1.68,1.68,0,0,1,.56-.2,5.14,5.14,0,0,1,.8-.06,3.19,3.19,0,0,0,.84-.13,1.59,1.59,0,0,0,.08-.42.46.46,0,0,0-.17-.35,1.1,1.1,0,0,0-.63-.17,1.21,1.21,0,0,0-.64.17,1,1,0,0,0-.36.5l-.62-.06a1.61,1.61,0,0,1,.59-.83,1.79,1.79,0,0,1,1.06-.29,1.66,1.66,0,0,1,1.08.33.72.72,0,0,1,.3.62,2.47,2.47,0,0,1-.1.67l-.2.91a3.7,3.7,0,0,0-.09.7,3.39,3.39,0,0,0,.07.5H163a2.88,2.88,0,0,1-.08-.45m.24-1.39a1.71,1.71,0,0,1-.29.08l-.5.06a4.28,4.28,0,0,0-.76.12.73.73,0,0,0-.35.24.61.61,0,0,0-.1.34.62.62,0,0,0,.17.44.75.75,0,0,0,.53.17,1.13,1.13,0,0,0,.58-.16,1.11,1.11,0,0,0,.45-.46,3,3,0,0,0,.27-.83"/><path class="cls-1" d="M167,73l.62.06a2,2,0,0,1-.67,1,1.54,1.54,0,0,1-1,.33,1.3,1.3,0,0,1-1-.38,1.49,1.49,0,0,1-.38-1.07,3.3,3.3,0,0,1,.23-1.18,2,2,0,0,1,.69-.87,1.77,1.77,0,0,1,1-.31,1.28,1.28,0,0,1,.94.34,1.17,1.17,0,0,1,.34.88l-.61,0a.65.65,0,0,0-.2-.53.66.66,0,0,0-.51-.21,1,1,0,0,0-.66.24,1.48,1.48,0,0,0-.44.72,2.86,2.86,0,0,0-.15.93,1.06,1.06,0,0,0,.2.71.68.68,0,0,0,.51.23.87.87,0,0,0,.58-.23A1.6,1.6,0,0,0,167,73"/><path class="cls-1" d="M168.08,74.28l1-5h.62l-.41,1.94a2.48,2.48,0,0,1,.64-.49,1.35,1.35,0,0,1,.63-.15.94.94,0,0,1,.7.25.79.79,0,0,1,.25.62,3.58,3.58,0,0,1-.11.71L171,74.28h-.62l.46-2.2a4,4,0,0,0,.1-.61.39.39,0,0,0-.13-.28.44.44,0,0,0-.34-.13,1.3,1.3,0,0,0-.66.19,1.21,1.21,0,0,0-.47.48,4.31,4.31,0,0,0-.31,1l-.33,1.56h-.62"/><path class="cls-1" d="M173,70l.15-.7h.61l-.14.7Zm-.91,4.33.77-3.64h.62l-.76,3.64h-.63"/><path class="cls-1" d="M173.78,74.28l.77-3.64h.56l-.14.63a3.05,3.05,0,0,1,.69-.55,1.47,1.47,0,0,1,.65-.17.91.91,0,0,1,.69.25.83.83,0,0,1,.27.64,3.9,3.9,0,0,1-.1.64l-.47,2.2h-.62l.48-2.31a2.6,2.6,0,0,0,.08-.5.38.38,0,0,0-.12-.28.51.51,0,0,0-.36-.13,1.19,1.19,0,0,0-.86.35,2.36,2.36,0,0,0-.55,1.17l-.34,1.7h-.63"/><path class="cls-1" d="M177.77,74.61l.62.06a.8.8,0,0,0,.05.31.47.47,0,0,0,.19.18,1.24,1.24,0,0,0,.43.07,1,1,0,0,0,.82-.29,2.49,2.49,0,0,0,.29-.86l.06-.28a1.45,1.45,0,0,1-1,.48,1.22,1.22,0,0,1-.92-.41,1.61,1.61,0,0,1-.37-1.15,2.21,2.21,0,0,1,.29-1.13,2.43,2.43,0,0,1,.69-.78,1.56,1.56,0,0,1,.84-.26,1.24,1.24,0,0,1,1.12.68l.12-.59h.56l-.73,3.52a2.66,2.66,0,0,1-.33.9,1.22,1.22,0,0,1-.53.5,1.89,1.89,0,0,1-.81.17,2,2,0,0,1-.75-.11,1,1,0,0,1-.47-.32.81.81,0,0,1-.16-.5.58.58,0,0,1,0-.19m.76-1.94a1.54,1.54,0,0,0,.08.56.93.93,0,0,0,.3.41.75.75,0,0,0,.42.13,1,1,0,0,0,.59-.21,1.41,1.41,0,0,0,.5-.67,2.16,2.16,0,0,0,.19-.86.94.94,0,0,0-.25-.7.8.8,0,0,0-.61-.28.89.89,0,0,0-.45.12,1.16,1.16,0,0,0-.39.38,1.61,1.61,0,0,0-.28.59,2,2,0,0,0-.1.53"/><path class="cls-1" d="M185.34,73.78l-.1.5a1.31,1.31,0,0,1-.43.06.89.89,0,0,1-.59-.18.45.45,0,0,1-.17-.38,4,4,0,0,1,.09-.55l.44-2.12h-.49l.1-.47h.5l.19-.91.7-.42-.28,1.33h.62l-.11.47h-.61l-.42,2c0,.26-.08.42-.08.46a.23.23,0,0,0,.07.18.35.35,0,0,0,.2,0,2,2,0,0,0,.37,0"/><path class="cls-1" d="M186,74.28l1.05-5h.63l-.41,1.94a2.32,2.32,0,0,1,.64-.49,1.29,1.29,0,0,1,.62-.15,1,1,0,0,1,.71.25.79.79,0,0,1,.25.62,3.58,3.58,0,0,1-.11.71l-.45,2.15h-.63l.47-2.2a5,5,0,0,0,.09-.61.38.38,0,0,0-.12-.28.47.47,0,0,0-.35-.13,1.26,1.26,0,0,0-.65.19,1.14,1.14,0,0,0-.47.48,3.87,3.87,0,0,0-.31,1l-.33,1.56H186"/><path class="cls-1" d="M192.66,73.05l.61.06a1.88,1.88,0,0,1-1.72,1.25,1.49,1.49,0,0,1-.75-.19,1.33,1.33,0,0,1-.52-.53,2,2,0,0,1-.17-.83,2.5,2.5,0,0,1,.28-1.15,1.86,1.86,0,0,1,.72-.83,1.73,1.73,0,0,1,.95-.28,1.39,1.39,0,0,1,1,.4,1.5,1.5,0,0,1,.4,1.11,3.62,3.62,0,0,1-.05.55h-2.69v.2a1.16,1.16,0,0,0,.24.78.71.71,0,0,0,.56.27,1,1,0,0,0,.62-.2,1.36,1.36,0,0,0,.49-.61m-1.8-.91h2V72a1,1,0,0,0-.24-.72.76.76,0,0,0-.59-.25,1.1,1.1,0,0,0-.74.28,1.81,1.81,0,0,0-.48.83"/><path class="cls-1" d="M194.06,73l.61,0a1.21,1.21,0,0,0,.08.45.73.73,0,0,0,.31.32,1.17,1.17,0,0,0,.52.12,1,1,0,0,0,.62-.17.5.5,0,0,0,.21-.39.47.47,0,0,0-.13-.3,1.64,1.64,0,0,0-.62-.36c-.33-.14-.53-.25-.63-.29a1.29,1.29,0,0,1-.36-.33.85.85,0,0,1-.11-.44.93.93,0,0,1,.35-.75,1.41,1.41,0,0,1,1-.31,1.48,1.48,0,0,1,1,.33,1.1,1.1,0,0,1,.38.82l-.61,0a.77.77,0,0,0-.24-.52.86.86,0,0,0-.62-.2.68.68,0,0,0-.5.16.41.41,0,0,0-.17.31.37.37,0,0,0,.14.3,3.54,3.54,0,0,0,.53.28,4,4,0,0,1,.91.48.92.92,0,0,1,.29.71,1,1,0,0,1-.17.53,1.14,1.14,0,0,1-.5.4,1.86,1.86,0,0,1-.81.16,1.91,1.91,0,0,1-1.08-.31,1.11,1.11,0,0,1-.41-1"/><path class="cls-1" d="M200.3,73.05l.61.06a1.72,1.72,0,0,1-.6.84,1.66,1.66,0,0,1-1.12.41,1.49,1.49,0,0,1-.75-.19,1.33,1.33,0,0,1-.52-.53,2,2,0,0,1-.17-.83,2.5,2.5,0,0,1,.28-1.15,1.86,1.86,0,0,1,.72-.83,1.73,1.73,0,0,1,.95-.28,1.41,1.41,0,0,1,1,.4,1.49,1.49,0,0,1,.39,1.11,3.56,3.56,0,0,1,0,.55h-2.69v.2a1.21,1.21,0,0,0,.23.78.74.74,0,0,0,.57.27,1,1,0,0,0,.62-.2,1.36,1.36,0,0,0,.49-.61m-1.8-.91h2.05V72a1,1,0,0,0-.24-.72.76.76,0,0,0-.59-.25,1.1,1.1,0,0,0-.74.28,1.81,1.81,0,0,0-.48.83"/><path class="cls-1" d="M204.41,74.28,204,70.64h.6l.17,1.63.06.92a3.94,3.94,0,0,0,0,.42c.07-.23.12-.41.17-.53a5.21,5.21,0,0,1,.23-.55l.88-1.89h.67l.12,1.81c0,.28,0,.66,0,1.11.12-.29.3-.72.57-1.26l.78-1.66H209l-1.78,3.64h-.65l-.14-2.14c0-.14,0-.39,0-.78-.09.25-.2.52-.33.8l-1,2.12h-.65"/><path class="cls-1" d="M208.89,74.28l1.05-5h.62l-.4,1.94a2.19,2.19,0,0,1,.64-.49,1.29,1.29,0,0,1,.62-.15,1,1,0,0,1,.71.25.79.79,0,0,1,.25.62,4.58,4.58,0,0,1-.11.71l-.46,2.15h-.62l.47-2.2a5,5,0,0,0,.09-.61.42.42,0,0,0-.12-.28.47.47,0,0,0-.35-.13,1.26,1.26,0,0,0-.65.19,1.14,1.14,0,0,0-.47.48,4.23,4.23,0,0,0-.32,1l-.32,1.56h-.63"/><path class="cls-1" d="M215.38,73.83a1.94,1.94,0,0,1-.63.4,1.68,1.68,0,0,1-.62.13,1.09,1.09,0,0,1-.83-.3,1,1,0,0,1-.3-.75,1.06,1.06,0,0,1,.14-.54,1.2,1.2,0,0,1,.36-.38,1.76,1.76,0,0,1,.56-.2,5.26,5.26,0,0,1,.8-.06,3.19,3.19,0,0,0,.84-.13,1.59,1.59,0,0,0,.08-.42.43.43,0,0,0-.17-.35,1,1,0,0,0-.62-.17,1.28,1.28,0,0,0-.65.17.92.92,0,0,0-.35.5l-.63-.06a1.73,1.73,0,0,1,.59-.83,1.82,1.82,0,0,1,1.07-.29,1.61,1.61,0,0,1,1.07.33.7.7,0,0,1,.3.62,2.88,2.88,0,0,1-.09.67l-.21.91a3.7,3.7,0,0,0-.09.7,2.6,2.6,0,0,0,.08.5h-.63a2.13,2.13,0,0,1-.07-.45m.23-1.39a1.58,1.58,0,0,1-.28.08l-.5.06a4.44,4.44,0,0,0-.77.12.71.71,0,0,0-.34.24.55.55,0,0,0-.11.34.62.62,0,0,0,.17.44.78.78,0,0,0,.53.17,1.1,1.1,0,0,0,.58-.16,1.05,1.05,0,0,0,.45-.46,2.69,2.69,0,0,0,.27-.83"/><path class="cls-1" d="M216.94,74.28l.76-3.64h.55l-.16.74a2.77,2.77,0,0,1,.55-.63.94.94,0,0,1,.56-.2,1.05,1.05,0,0,1,.46.14l-.27.58a.58.58,0,0,0-.34-.13,1,1,0,0,0-.67.38,2.56,2.56,0,0,0-.54,1.29l-.31,1.47h-.59"/><path class="cls-1" d="M219.47,74.28l.67-3.17h-.56l.11-.47h.55l.1-.53a1.75,1.75,0,0,1,.18-.55.75.75,0,0,1,.28-.28,1.05,1.05,0,0,1,.54-.12,2.73,2.73,0,0,1,.68.11l-.11.53a2.44,2.44,0,0,0-.53-.08.38.38,0,0,0-.27.09,1.06,1.06,0,0,0-.17.44l-.08.39h.69l-.1.47h-.68l-.68,3.17h-.62"/><path class="cls-1" d="M221.53,73l.61,0a1.21,1.21,0,0,0,.08.45.73.73,0,0,0,.31.32,1.14,1.14,0,0,0,.52.12,1,1,0,0,0,.62-.17.5.5,0,0,0,.21-.39.47.47,0,0,0-.13-.3,1.73,1.73,0,0,0-.62-.36c-.33-.14-.54-.25-.63-.29a1.16,1.16,0,0,1-.36-.33.85.85,0,0,1-.11-.44.93.93,0,0,1,.35-.75,1.4,1.4,0,0,1,1-.31,1.49,1.49,0,0,1,1,.33,1.1,1.1,0,0,1,.38.82l-.61,0a.77.77,0,0,0-.24-.52.86.86,0,0,0-.62-.2.68.68,0,0,0-.5.16.41.41,0,0,0-.17.31.37.37,0,0,0,.14.3,3.07,3.07,0,0,0,.53.28,3.6,3.6,0,0,1,.9.48.9.9,0,0,1,.3.71,1,1,0,0,1-.17.53,1.14,1.14,0,0,1-.5.4,2.07,2.07,0,0,1-1.89-.15,1.11,1.11,0,0,1-.41-1"/><polygon class="cls-1" points="225.27 74.28 225.41 73.58 226.11 73.58 225.97 74.28 225.27 74.28"/><path class="cls-1" d="M1,64.89l-.31-5h.68l.11,2.48c0,.13,0,.46.05,1V64c.28-.58.49-1,.61-1.22l1.53-2.89h.69L4.5,62.8c0,.32,0,.73,0,1.22,0-.11.11-.29.22-.52.17-.38.3-.64.38-.81l1.43-2.83h.69l-2.56,5H4l-.17-3c0-.26,0-.57,0-1-.14.33-.25.58-.34.75L1.66,64.89H1"/><path class="cls-1" d="M6.58,64.89l1-5h.62L7.84,61.8a2.48,2.48,0,0,1,.64-.49,1.35,1.35,0,0,1,.63-.15.9.9,0,0,1,.7.25.79.79,0,0,1,.25.62,3.42,3.42,0,0,1-.11.7L9.5,64.89H8.88l.46-2.2a4,4,0,0,0,.1-.61.37.37,0,0,0-.13-.28A.44.44,0,0,0,9,61.67a1.33,1.33,0,0,0-1.13.67,4.15,4.15,0,0,0-.31,1L7.2,64.89H6.58"/><path class="cls-1" d="M12.89,64.44a2,2,0,0,1-.62.4,1.73,1.73,0,0,1-.63.13,1.16,1.16,0,0,1-.83-.3,1,1,0,0,1-.29-.75,1,1,0,0,1,.14-.55A1.16,1.16,0,0,1,11,63a1.68,1.68,0,0,1,.56-.2,6.21,6.21,0,0,1,.8-.07,2.89,2.89,0,0,0,.84-.12,1.59,1.59,0,0,0,.08-.42.46.46,0,0,0-.17-.35,1,1,0,0,0-.63-.17,1.13,1.13,0,0,0-.64.17,1,1,0,0,0-.36.5l-.62-.06a1.61,1.61,0,0,1,.59-.83,1.79,1.79,0,0,1,1.06-.29,1.71,1.71,0,0,1,1.08.32.75.75,0,0,1,.3.63,2.47,2.47,0,0,1-.1.67l-.2.91a3.7,3.7,0,0,0-.09.7,3.39,3.39,0,0,0,.07.5H13a3.12,3.12,0,0,1-.08-.45m.24-1.39a1.12,1.12,0,0,1-.29.07,3.89,3.89,0,0,1-.5.07,4.28,4.28,0,0,0-.76.12.73.73,0,0,0-.35.24.61.61,0,0,0-.1.34.62.62,0,0,0,.17.44.75.75,0,0,0,.53.17,1.13,1.13,0,0,0,.58-.16,1.08,1.08,0,0,0,.45-.47,2.8,2.8,0,0,0,.27-.82"/><path class="cls-1" d="M14.3,64.89l.76-3.64h.55l-.16.73a2.92,2.92,0,0,1,.55-.62.94.94,0,0,1,.56-.2,1.05,1.05,0,0,1,.46.14l-.27.57a.64.64,0,0,0-.34-.12,1,1,0,0,0-.68.37,2.75,2.75,0,0,0-.53,1.3l-.31,1.47H14.3"/><path class="cls-1" d="M16.67,64.89l.67-3.17h-.56l.11-.47h.55l.11-.53a1.79,1.79,0,0,1,.17-.55.83.83,0,0,1,.28-.28,1.07,1.07,0,0,1,.55-.12,3.16,3.16,0,0,1,.67.1l-.11.54a2.35,2.35,0,0,0-.53-.08.4.4,0,0,0-.27.09,1,1,0,0,0-.17.44l-.08.39h.69l-.09.47H18l-.67,3.17h-.63"/><path class="cls-1" d="M22.86,64.44a2,2,0,0,1-.62.4,1.73,1.73,0,0,1-.63.13,1.16,1.16,0,0,1-.83-.3,1,1,0,0,1-.29-.75,1,1,0,0,1,.14-.55A1.06,1.06,0,0,1,21,63a1.68,1.68,0,0,1,.56-.2,6.19,6.19,0,0,1,.79-.07,2.91,2.91,0,0,0,.85-.12,1.59,1.59,0,0,0,.08-.42.44.44,0,0,0-.18-.35,1,1,0,0,0-.62-.17,1.13,1.13,0,0,0-.64.17,1,1,0,0,0-.36.5l-.63-.06a1.68,1.68,0,0,1,.6-.83,1.79,1.79,0,0,1,1.06-.29,1.71,1.71,0,0,1,1.08.32.75.75,0,0,1,.3.63,2.94,2.94,0,0,1-.1.67l-.2.91a3.7,3.7,0,0,0-.09.7,3.39,3.39,0,0,0,.07.5h-.62a3.12,3.12,0,0,1-.08-.45m.23-1.39a1,1,0,0,1-.28.07,3.89,3.89,0,0,1-.5.07,4.28,4.28,0,0,0-.76.12.73.73,0,0,0-.35.24.61.61,0,0,0,.07.78.75.75,0,0,0,.53.17,1.13,1.13,0,0,0,.58-.16,1.08,1.08,0,0,0,.45-.47,2.55,2.55,0,0,0,.26-.82"/><path class="cls-1" d="M25.72,64.39l-.11.5a1.22,1.22,0,0,1-.42.06.93.93,0,0,1-.6-.18.47.47,0,0,1-.17-.38,3.2,3.2,0,0,1,.1-.55L25,61.72h-.48l.09-.47h.5l.19-.91.7-.42-.28,1.33h.63l-.11.47h-.61l-.42,2c-.05.27-.08.43-.08.47a.19.19,0,0,0,.06.17.3.3,0,0,0,.2,0,2.09,2.09,0,0,0,.38,0"/><path class="cls-1" d="M28.16,64.89l1-5h1.57a4.67,4.67,0,0,1,.62,0,1.65,1.65,0,0,1,.56.2,1,1,0,0,1,.36.41,1,1,0,0,1,.14.55,1.14,1.14,0,0,1-.23.73,1.46,1.46,0,0,1-.7.48,1.21,1.21,0,0,1,.61.41,1,1,0,0,1,.2.63,1.43,1.43,0,0,1-.24.79,1.62,1.62,0,0,1-.62.6,1.84,1.84,0,0,1-.88.2H28.16M29.42,62h1a1.85,1.85,0,0,0,1-.22.8.8,0,0,0,.33-.69.69.69,0,0,0-.09-.36.53.53,0,0,0-.27-.22,2,2,0,0,0-.62-.07H29.75L29.42,62m-.48,2.33h1.15a6.09,6.09,0,0,0,.61,0,2,2,0,0,0,.52-.19,1,1,0,0,0,.31-.36.91.91,0,0,0,.11-.45.66.66,0,0,0-.22-.53,1.29,1.29,0,0,0-.84-.19H29.31l-.37,1.75"/><path class="cls-1" d="M35.2,64.23a1.84,1.84,0,0,1-1.34.74,1,1,0,0,1-.69-.24.78.78,0,0,1-.25-.59,4.8,4.8,0,0,1,.13-.8l.43-2.09h.61l-.48,2.33a1.79,1.79,0,0,0-.06.45.45.45,0,0,0,.12.33.52.52,0,0,0,.38.11,1.2,1.2,0,0,0,.51-.13A1.19,1.19,0,0,0,35,64a1.55,1.55,0,0,0,.3-.52,3.76,3.76,0,0,0,.17-.65l.33-1.58h.63l-.77,3.64h-.58l.14-.66"/><path class="cls-1" d="M36.64,63.64l.61,0a1.21,1.21,0,0,0,.08.45.67.67,0,0,0,.31.31,1,1,0,0,0,.52.13,1,1,0,0,0,.62-.17.49.49,0,0,0,.2-.39.44.44,0,0,0-.12-.3,1.71,1.71,0,0,0-.63-.36c-.32-.14-.53-.25-.62-.3a1,1,0,0,1-.36-.32.87.87,0,0,1-.11-.44,1,1,0,0,1,.34-.75,1.45,1.45,0,0,1,1-.31,1.53,1.53,0,0,1,1,.32,1.13,1.13,0,0,1,.37.83l-.6,0a.77.77,0,0,0-.24-.52.86.86,0,0,0-.62-.2.68.68,0,0,0-.5.16.42.42,0,0,0-.18.31.41.41,0,0,0,.14.3,3.32,3.32,0,0,0,.54.28,3.6,3.6,0,0,1,.9.48.89.89,0,0,1,.3.7,1,1,0,0,1-.17.54,1.14,1.14,0,0,1-.5.4,1.91,1.91,0,0,1-.82.16,1.85,1.85,0,0,1-1.07-.31,1.09,1.09,0,0,1-.41-1"/><path class="cls-1" d="M42.49,64.44a2.13,2.13,0,0,1-.63.4,1.68,1.68,0,0,1-.62.13,1.13,1.13,0,0,1-.83-.3,1,1,0,0,1-.3-.75,1.12,1.12,0,0,1,.14-.55,1.16,1.16,0,0,1,.36-.37,1.76,1.76,0,0,1,.56-.2,6.41,6.41,0,0,1,.8-.07,2.89,2.89,0,0,0,.84-.12,1.59,1.59,0,0,0,.08-.42.43.43,0,0,0-.17-.35,1,1,0,0,0-.63-.17,1.17,1.17,0,0,0-.64.17,1,1,0,0,0-.36.5l-.62-.06a1.66,1.66,0,0,1,.59-.83,1.8,1.8,0,0,1,1.07-.29,1.66,1.66,0,0,1,1.07.32.73.73,0,0,1,.3.63,2.88,2.88,0,0,1-.09.67l-.21.91a3.7,3.7,0,0,0-.09.7,2.6,2.6,0,0,0,.08.5h-.63a2.24,2.24,0,0,1-.07-.45m.23-1.39a1,1,0,0,1-.28.07,4.55,4.55,0,0,1-.5.07,4.44,4.44,0,0,0-.77.12.71.71,0,0,0-.34.24.55.55,0,0,0-.11.34.62.62,0,0,0,.17.44.78.78,0,0,0,.53.17,1.1,1.1,0,0,0,.58-.16,1.08,1.08,0,0,0,.45-.47,2.53,2.53,0,0,0,.27-.82"/><path class="cls-1" d="M43.89,64.89l.77-3.64h.56l-.14.62a3,3,0,0,1,.69-.54,1.4,1.4,0,0,1,.65-.17.88.88,0,0,1,.69.25.82.82,0,0,1,.26.64,3.62,3.62,0,0,1-.09.64l-.47,2.2h-.62l.48-2.31a2.6,2.6,0,0,0,.08-.5.37.37,0,0,0-.13-.28.47.47,0,0,0-.35-.13,1.19,1.19,0,0,0-.86.35,2.28,2.28,0,0,0-.55,1.17l-.34,1.7h-.63"/><path class="cls-1" d="M49.77,64.89l1-5h.66l.84,1.89c.27.58.47,1.06.63,1.45.08.24.18.53.29.92.07-.42.14-.85.24-1.31l.62-3h.66l-1.06,5H53L51.78,62a8.43,8.43,0,0,1-.51-1.36c-.05.33-.11.74-.21,1.21l-.64,3.06h-.65"/><path class="cls-1" d="M57.34,63.66l.61.06a1.63,1.63,0,0,1-.59.84,1.67,1.67,0,0,1-1.13.41,1.48,1.48,0,0,1-.74-.19,1.27,1.27,0,0,1-.52-.53,2,2,0,0,1-.17-.83,2.5,2.5,0,0,1,.28-1.15,1.86,1.86,0,0,1,.72-.83,1.7,1.7,0,0,1,1-.28,1.41,1.41,0,0,1,1,.4,1.49,1.49,0,0,1,.39,1.11,3.56,3.56,0,0,1,0,.55H55.44v.2a1.21,1.21,0,0,0,.23.78.77.77,0,0,0,.56.27,1.07,1.07,0,0,0,.63-.2,1.47,1.47,0,0,0,.48-.61m-1.79-.91h2v-.14a1,1,0,0,0-.23-.72.78.78,0,0,0-.59-.25,1.1,1.1,0,0,0-.74.28,1.72,1.72,0,0,0-.48.83"/><path class="cls-1" d="M59.22,64.89l-.38-3.64h.6l.17,1.62.06.93a4,4,0,0,0,0,.42c.08-.24.12-.41.17-.53s.13-.32.23-.55L61,61.25h.67l.13,1.81c0,.28,0,.66,0,1.11a12.7,12.7,0,0,1,.56-1.26l.78-1.66h.63L62,64.89h-.66l-.14-2.14c0-.14,0-.39,0-.78-.09.25-.2.51-.33.8l-1,2.12h-.66"/><path class="cls-1" d="M65.53,64.89l1.06-5h2.1a2.26,2.26,0,0,1,.81.12,1,1,0,0,1,.45.44,1.21,1.21,0,0,1,.19.67,2.07,2.07,0,0,1-.12.64,1.54,1.54,0,0,1-.33.54,1.56,1.56,0,0,1-.39.31,1.42,1.42,0,0,1-.42.15,4.17,4.17,0,0,1-1,.11H66.64l-.44,2h-.67m1.22-2.61h1.11a2.43,2.43,0,0,0,1-.14,1.13,1.13,0,0,0,.67-1,.73.73,0,0,0-.1-.41.58.58,0,0,0-.27-.22,2.29,2.29,0,0,0-.67-.07h-1.3l-.39,1.87"/><path class="cls-1" d="M70.2,63.5a2.58,2.58,0,0,1,.63-1.77,1.71,1.71,0,0,1,1.36-.57,1.4,1.4,0,0,1,1.06.42,1.49,1.49,0,0,1,.41,1.11,2.72,2.72,0,0,1-.27,1.17,2,2,0,0,1-.72.83,1.86,1.86,0,0,1-1.76.11,1.27,1.27,0,0,1-.53-.52,1.76,1.76,0,0,1-.18-.78m.63-.06a1.22,1.22,0,0,0,.23.79.84.84,0,0,0,.64.27,1,1,0,0,0,.39-.08,1.11,1.11,0,0,0,.36-.25,1.44,1.44,0,0,0,.28-.37,2.24,2.24,0,0,0,.21-.47,1.87,1.87,0,0,0,.11-.64,1.07,1.07,0,0,0-.25-.77.81.81,0,0,0-.63-.28,1.11,1.11,0,0,0-.54.14,1.87,1.87,0,0,0-.44.41,1.76,1.76,0,0,0-.28.62,3.28,3.28,0,0,0-.08.63"/><path class="cls-1" d="M74,64.89l.77-3.64h.55l-.16.73a2.67,2.67,0,0,1,.55-.62.9.9,0,0,1,.56-.2,1,1,0,0,1,.45.14l-.26.57a.64.64,0,0,0-.35-.12,1,1,0,0,0-.67.37,2.65,2.65,0,0,0-.53,1.3l-.31,1.47H74"/><path class="cls-1" d="M77.7,64.39l-.11.5a1.22,1.22,0,0,1-.42.06.89.89,0,0,1-.59-.18.45.45,0,0,1-.17-.38,4,4,0,0,1,.09-.55l.44-2.12h-.49l.1-.47h.5l.18-.91.71-.42-.28,1.33h.62l-.11.47h-.61l-.42,2c0,.27-.08.43-.08.47a.19.19,0,0,0,.07.17.27.27,0,0,0,.2,0,2.05,2.05,0,0,0,.37,0"/><path class="cls-1" d="M82.52,64.44a2.13,2.13,0,0,1-.63.4,1.68,1.68,0,0,1-.62.13,1.13,1.13,0,0,1-.83-.3,1,1,0,0,1-.3-.75,1.12,1.12,0,0,1,.14-.55,1.27,1.27,0,0,1,.36-.37,1.76,1.76,0,0,1,.56-.2,6.41,6.41,0,0,1,.8-.07,2.89,2.89,0,0,0,.84-.12,1.59,1.59,0,0,0,.08-.42.43.43,0,0,0-.17-.35,1,1,0,0,0-.62-.17,1.18,1.18,0,0,0-.65.17.88.88,0,0,0-.35.5l-.63-.06a1.73,1.73,0,0,1,.59-.83,1.82,1.82,0,0,1,1.07-.29,1.66,1.66,0,0,1,1.07.32.73.73,0,0,1,.3.63,2.88,2.88,0,0,1-.09.67l-.21.91a3.7,3.7,0,0,0-.09.7,2.6,2.6,0,0,0,.08.5h-.63a2.24,2.24,0,0,1-.07-.45m.23-1.39a1,1,0,0,1-.28.07,4.2,4.2,0,0,1-.5.07,4.44,4.44,0,0,0-.77.12.71.71,0,0,0-.34.24.55.55,0,0,0-.11.34.62.62,0,0,0,.17.44.78.78,0,0,0,.53.17,1.1,1.1,0,0,0,.58-.16,1,1,0,0,0,.45-.47,2.53,2.53,0,0,0,.27-.82"/><path class="cls-1" d="M83.92,64.89l.77-3.64h.54l-.15.73a2.67,2.67,0,0,1,.55-.62.9.9,0,0,1,.56-.2,1,1,0,0,1,.45.14l-.26.57a.64.64,0,0,0-.35-.12.94.94,0,0,0-.67.37,2.65,2.65,0,0,0-.53,1.3l-.31,1.47h-.6"/><path class="cls-1" d="M88.89,63.66l.61.06A1.85,1.85,0,0,1,87.78,65a1.55,1.55,0,0,1-.75-.19,1.24,1.24,0,0,1-.51-.53,2,2,0,0,1-.18-.83,2.51,2.51,0,0,1,.29-1.15,1.84,1.84,0,0,1,.71-.83,1.73,1.73,0,0,1,1-.28,1.43,1.43,0,0,1,1,.4,1.53,1.53,0,0,1,.39,1.11,3.62,3.62,0,0,1,0,.55H87v.2a1.15,1.15,0,0,0,.23.78.75.75,0,0,0,.56.27,1.09,1.09,0,0,0,.63-.2,1.47,1.47,0,0,0,.48-.61m-1.8-.91h2v-.14a1.05,1.05,0,0,0-.23-.72.79.79,0,0,0-.6-.25,1.1,1.1,0,0,0-.73.28,1.74,1.74,0,0,0-.49.83"/><path class="cls-1" d="M94.44,64.44a1.9,1.9,0,0,1-.63.4,1.64,1.64,0,0,1-.62.13,1.13,1.13,0,0,1-.83-.3,1,1,0,0,1-.3-.75,1.12,1.12,0,0,1,.14-.55,1.27,1.27,0,0,1,.36-.37,1.82,1.82,0,0,1,.57-.2,6.19,6.19,0,0,1,.79-.07,3,3,0,0,0,.85-.12,2,2,0,0,0,.07-.42.43.43,0,0,0-.17-.35,1,1,0,0,0-.62-.17,1.13,1.13,0,0,0-.64.17,1,1,0,0,0-.36.5l-.63-.06a1.68,1.68,0,0,1,.6-.83,1.79,1.79,0,0,1,1.06-.29,1.71,1.71,0,0,1,1.08.32.75.75,0,0,1,.29.63,2.88,2.88,0,0,1-.09.67l-.2.91a3.14,3.14,0,0,0-.1.7,2.6,2.6,0,0,0,.08.5h-.62a2.16,2.16,0,0,1-.08-.45m.23-1.39a1,1,0,0,1-.28.07,3.89,3.89,0,0,1-.5.07,4.28,4.28,0,0,0-.76.12.73.73,0,0,0-.35.24.55.55,0,0,0-.11.34.67.67,0,0,0,.17.44.79.79,0,0,0,.54.17,1.07,1.07,0,0,0,.57-.16,1,1,0,0,0,.46-.47,2.55,2.55,0,0,0,.26-.82"/><path class="cls-1" d="M95.84,64.89l1-5h.63l-.38,1.8a2.69,2.69,0,0,1,.53-.38,1.15,1.15,0,0,1,.5-.12,1.06,1.06,0,0,1,.86.39,1.54,1.54,0,0,1,.34,1.11,2.56,2.56,0,0,1-.14.89,2.48,2.48,0,0,1-.34.67,3,3,0,0,1-.42.44,1.33,1.33,0,0,1-.44.23,1.36,1.36,0,0,1-.44.08,1.12,1.12,0,0,1-.64-.19,1.27,1.27,0,0,1-.42-.58l-.14.69h-.55m.93-1.5v.13a1.07,1.07,0,0,0,.21.71.71.71,0,0,0,.55.24.92.92,0,0,0,.59-.22,1.55,1.55,0,0,0,.46-.72,2.65,2.65,0,0,0,.19-.91,1,1,0,0,0-.24-.7.69.69,0,0,0-.55-.26.92.92,0,0,0-.61.26,2.56,2.56,0,0,0-.6,1.47"/><path class="cls-1" d="M99.81,63.5a2.58,2.58,0,0,1,.63-1.77,1.7,1.7,0,0,1,1.36-.57,1.42,1.42,0,0,1,1.06.42,1.49,1.49,0,0,1,.41,1.11,2.72,2.72,0,0,1-.27,1.17,2,2,0,0,1-.72.83,1.86,1.86,0,0,1-1,.28,1.82,1.82,0,0,1-.78-.17,1.35,1.35,0,0,1-.54-.52,1.9,1.9,0,0,1-.17-.78m.63-.06a1.22,1.22,0,0,0,.23.79.84.84,0,0,0,.64.27,1,1,0,0,0,.39-.08,1.11,1.11,0,0,0,.36-.25,1.44,1.44,0,0,0,.28-.37,2.24,2.24,0,0,0,.21-.47,1.87,1.87,0,0,0,.11-.64,1.07,1.07,0,0,0-.25-.77.82.82,0,0,0-.63-.28,1.18,1.18,0,0,0-.55.14,2,2,0,0,0-.43.41,1.76,1.76,0,0,0-.28.62,3.28,3.28,0,0,0-.08.63"/><path class="cls-1" d="M106.05,64.23a1.86,1.86,0,0,1-1.35.74,1,1,0,0,1-.68-.24.75.75,0,0,1-.25-.59,4.49,4.49,0,0,1,.12-.8l.44-2.09h.61l-.49,2.33a2.42,2.42,0,0,0-.06.45.45.45,0,0,0,.13.33.48.48,0,0,0,.37.11,1.25,1.25,0,0,0,.52-.13,1.28,1.28,0,0,0,.42-.34,1.73,1.73,0,0,0,.3-.52c0-.12.1-.34.17-.65l.33-1.58h.62l-.77,3.64h-.57l.14-.66"/><path class="cls-1" d="M108.86,64.39l-.11.5a1.22,1.22,0,0,1-.42.06.93.93,0,0,1-.6-.18.47.47,0,0,1-.17-.38,3.2,3.2,0,0,1,.1-.55l.43-2.12h-.48l.09-.47h.5l.19-.91.7-.42-.28,1.33h.63l-.11.47h-.61l-.42,2c0,.27-.08.43-.08.47a.19.19,0,0,0,.06.17.3.3,0,0,0,.2,0,2.09,2.09,0,0,0,.38,0"/><path class="cls-1" d="M112.42,62a1.7,1.7,0,0,1,.5-.31,1.26,1.26,0,0,1,.53-.11,1.21,1.21,0,0,1,.94.39,1.45,1.45,0,0,1,.38,1,2.13,2.13,0,0,1-.55,1.47,1.55,1.55,0,0,1-1.17.52,1.41,1.41,0,0,1-1-.45,1.89,1.89,0,0,1-.41-1.3,5.3,5.3,0,0,1,.27-1.58,3.59,3.59,0,0,1,.5-1A2.13,2.13,0,0,1,113,60a1.61,1.61,0,0,1,.76-.19,1.15,1.15,0,0,1,.85.33,1.39,1.39,0,0,1,.37.91l-.58,0a.91.91,0,0,0-.23-.57.62.62,0,0,0-.46-.19,1,1,0,0,0-.56.22,1.73,1.73,0,0,0-.48.64,3.28,3.28,0,0,0-.27.75m-.22,1.5a1.08,1.08,0,0,0,.27.73.77.77,0,0,0,.59.28.91.91,0,0,0,.49-.17,1.31,1.31,0,0,0,.43-.54,1.52,1.52,0,0,0,.19-.72,1.07,1.07,0,0,0-.25-.74.78.78,0,0,0-.61-.28,1,1,0,0,0-.76.41,1.46,1.46,0,0,0-.35,1"/><path class="cls-1" d="M117,64.89l.77-3.64h.61l-.13.59a2.64,2.64,0,0,1,.61-.53,1.18,1.18,0,0,1,.61-.15.87.87,0,0,1,.56.18.78.78,0,0,1,.3.5,1.94,1.94,0,0,1,.58-.51,1.34,1.34,0,0,1,.65-.17,1,1,0,0,1,.69.21.78.78,0,0,1,.23.61,5.2,5.2,0,0,1-.07.57l-.5,2.34h-.63l.5-2.41a2.18,2.18,0,0,0,.08-.42.34.34,0,0,0-.13-.28.38.38,0,0,0-.31-.11,1.23,1.23,0,0,0-.58.17,1.27,1.27,0,0,0-.43.46,2.41,2.41,0,0,0-.28.82l-.38,1.77h-.61l.52-2.47a2.17,2.17,0,0,0,0-.34.39.39,0,0,0-.11-.3.36.36,0,0,0-.29-.11,1.26,1.26,0,0,0-.57.17,1.38,1.38,0,0,0-.46.47,3.42,3.42,0,0,0-.29.86l-.37,1.72H117"/><path class="cls-1" d="M125.47,63.66l.61.06A1.88,1.88,0,0,1,124.36,65a1.49,1.49,0,0,1-.75-.19,1.33,1.33,0,0,1-.52-.53,2.11,2.11,0,0,1-.17-.83,2.63,2.63,0,0,1,.28-1.15,1.92,1.92,0,0,1,.72-.83,1.73,1.73,0,0,1,1-.28,1.43,1.43,0,0,1,1,.4,1.53,1.53,0,0,1,.39,1.11,3.62,3.62,0,0,1,0,.55h-2.69v.2a1.16,1.16,0,0,0,.24.78.74.74,0,0,0,.56.27,1,1,0,0,0,.62-.2,1.42,1.42,0,0,0,.49-.61m-1.8-.91h2v-.14a1,1,0,0,0-.24-.72.75.75,0,0,0-.59-.25,1.1,1.1,0,0,0-.73.28,1.74,1.74,0,0,0-.49.83"/><path class="cls-1" d="M128.11,64.39l-.11.5a1.22,1.22,0,0,1-.42.06.93.93,0,0,1-.6-.18.47.47,0,0,1-.17-.38,3.2,3.2,0,0,1,.1-.55l.43-2.12h-.48l.09-.47h.5l.19-.91.7-.42-.28,1.33h.63l-.11.47H128l-.42,2c0,.27-.08.43-.08.47a.19.19,0,0,0,.06.17.3.3,0,0,0,.2,0,2.09,2.09,0,0,0,.38,0"/><path class="cls-1" d="M128.56,64.89l.77-3.64h.54l-.15.73a2.67,2.67,0,0,1,.55-.62.9.9,0,0,1,.56-.2,1,1,0,0,1,.45.14l-.26.57a.64.64,0,0,0-.35-.12.94.94,0,0,0-.67.37,2.65,2.65,0,0,0-.53,1.3l-.31,1.47h-.6"/><path class="cls-1" d="M133.53,63.66l.61.06A1.85,1.85,0,0,1,132.42,65a1.55,1.55,0,0,1-.75-.19,1.24,1.24,0,0,1-.51-.53,2,2,0,0,1-.18-.83,2.51,2.51,0,0,1,.29-1.15,1.84,1.84,0,0,1,.71-.83,1.73,1.73,0,0,1,1-.28,1.43,1.43,0,0,1,1,.4,1.53,1.53,0,0,1,.39,1.11,3.62,3.62,0,0,1-.05.55h-2.68v.2a1.15,1.15,0,0,0,.23.78.75.75,0,0,0,.56.27,1.09,1.09,0,0,0,.63-.2,1.47,1.47,0,0,0,.48-.61m-1.8-.91h2.05v-.14a1.05,1.05,0,0,0-.23-.72.79.79,0,0,0-.6-.25,1.1,1.1,0,0,0-.73.28,1.74,1.74,0,0,0-.49.83"/><path class="cls-1" d="M134.77,63.64l.6,0a1.45,1.45,0,0,0,.08.45.69.69,0,0,0,.32.31,1.16,1.16,0,0,0,1.14,0,.49.49,0,0,0,.2-.39.45.45,0,0,0-.13-.3,1.56,1.56,0,0,0-.62-.36c-.33-.14-.53-.25-.63-.3a1.13,1.13,0,0,1-.36-.32,1,1,0,0,1-.1-.44.92.92,0,0,1,.34-.75,1.43,1.43,0,0,1,1-.31,1.52,1.52,0,0,1,1,.32,1.14,1.14,0,0,1,.38.83l-.61,0a.76.76,0,0,0-.23-.52.87.87,0,0,0-.63-.2.68.68,0,0,0-.5.16.41.41,0,0,0-.17.31.41.41,0,0,0,.14.3,3.54,3.54,0,0,0,.53.28,3.74,3.74,0,0,1,.91.48.91.91,0,0,1,.29.7,1,1,0,0,1-.17.54,1.09,1.09,0,0,1-.5.4,1.86,1.86,0,0,1-.81.16,1.91,1.91,0,0,1-1.08-.31,1.09,1.09,0,0,1-.4-1"/><path class="cls-1" d="M140.16,64.89l.67-3.17h-.56l.11-.47h.54l.11-.53a2.12,2.12,0,0,1,.17-.55.93.93,0,0,1,.28-.28,1.12,1.12,0,0,1,.55-.12,3,3,0,0,1,.67.1l-.11.54a2.35,2.35,0,0,0-.53-.08.36.36,0,0,0-.26.09.77.77,0,0,0-.17.44l-.08.39h.68l-.09.47h-.69l-.67,3.17h-.62"/><path class="cls-1" d="M142,64.89l.77-3.64h.54l-.15.73a2.66,2.66,0,0,1,.54-.62.94.94,0,0,1,.57-.2,1,1,0,0,1,.45.14l-.27.57a.64.64,0,0,0-.34-.12.94.94,0,0,0-.67.37,2.56,2.56,0,0,0-.53,1.3l-.32,1.47H142"/><path class="cls-1" d="M144.39,63.5a2.53,2.53,0,0,1,.63-1.77,1.69,1.69,0,0,1,1.35-.57,1.42,1.42,0,0,1,1.07.42,1.52,1.52,0,0,1,.4,1.11,2.71,2.71,0,0,1-.26,1.17,2,2,0,0,1-.72.83,1.9,1.9,0,0,1-1,.28,1.85,1.85,0,0,1-.78-.17,1.39,1.39,0,0,1-.53-.52,1.76,1.76,0,0,1-.17-.78m.63-.06a1.16,1.16,0,0,0,.23.79.82.82,0,0,0,.64.27,1,1,0,0,0,.39-.08,1.11,1.11,0,0,0,.36-.25,1.72,1.72,0,0,0,.28-.37,1.8,1.8,0,0,0,.2-.47,1.87,1.87,0,0,0,.11-.64,1,1,0,0,0-.25-.77.79.79,0,0,0-.62-.28,1.15,1.15,0,0,0-.55.14,2.36,2.36,0,0,0-.44.41,2.21,2.21,0,0,0-.28.62,4.16,4.16,0,0,0-.07.63"/><path class="cls-1" d="M148.14,64.89l.77-3.64h.61l-.13.59a2.64,2.64,0,0,1,.61-.53,1.18,1.18,0,0,1,.61-.15.87.87,0,0,1,.56.18.78.78,0,0,1,.3.5,1.94,1.94,0,0,1,.58-.51,1.34,1.34,0,0,1,.65-.17,1,1,0,0,1,.69.21.78.78,0,0,1,.23.61,5.2,5.2,0,0,1-.07.57l-.5,2.34h-.63l.5-2.41a2.18,2.18,0,0,0,.08-.42.34.34,0,0,0-.13-.28.38.38,0,0,0-.31-.11,1.23,1.23,0,0,0-.58.17,1.27,1.27,0,0,0-.43.46,2.41,2.41,0,0,0-.28.82l-.38,1.77h-.61l.52-2.47a2.17,2.17,0,0,0,0-.34.39.39,0,0,0-.11-.3.36.36,0,0,0-.29-.11,1.26,1.26,0,0,0-.57.17,1.38,1.38,0,0,0-.46.47,3.42,3.42,0,0,0-.29.86l-.37,1.72h-.61"/><path class="cls-1" d="M157.3,64.39l-.11.5a1.22,1.22,0,0,1-.42.06.91.91,0,0,1-.6-.18.45.45,0,0,1-.17-.38,4,4,0,0,1,.09-.55l.44-2.12h-.48l.09-.47h.5l.19-.91.7-.42-.28,1.33h.63l-.11.47h-.61l-.42,2c-.05.27-.08.43-.08.47a.19.19,0,0,0,.06.17.3.3,0,0,0,.2,0,2.17,2.17,0,0,0,.38,0"/><path class="cls-1" d="M157.75,64.89l1.05-5h.62L159,61.8a2.19,2.19,0,0,1,.64-.49,1.29,1.29,0,0,1,.62-.15.9.9,0,0,1,.7.25.75.75,0,0,1,.25.62,4,4,0,0,1-.1.7l-.46,2.16h-.62l.47-2.2a5,5,0,0,0,.09-.61.37.37,0,0,0-.13-.28.43.43,0,0,0-.34-.13,1.23,1.23,0,0,0-.66.19,1.18,1.18,0,0,0-.46.48,4.07,4.07,0,0,0-.32,1l-.32,1.56h-.63"/><path class="cls-1" d="M164.28,63.66l.61.06A1.85,1.85,0,0,1,163.17,65a1.55,1.55,0,0,1-.75-.19,1.24,1.24,0,0,1-.51-.53,2,2,0,0,1-.18-.83,2.51,2.51,0,0,1,.29-1.15,1.84,1.84,0,0,1,.71-.83,1.73,1.73,0,0,1,1-.28,1.43,1.43,0,0,1,1,.4,1.53,1.53,0,0,1,.39,1.11,3.62,3.62,0,0,1-.05.55h-2.68v.2a1.15,1.15,0,0,0,.23.78.75.75,0,0,0,.56.27,1.09,1.09,0,0,0,.63-.2,1.47,1.47,0,0,0,.48-.61m-1.8-.91h2.05v-.14a1.05,1.05,0,0,0-.23-.72.79.79,0,0,0-.6-.25,1.1,1.1,0,0,0-.73.28,1.74,1.74,0,0,0-.49.83"/><path class="cls-1" d="M169.73,64.48a1.54,1.54,0,0,1-1,.49,1.18,1.18,0,0,1-.86-.38,1.6,1.6,0,0,1-.34-1.11,2.66,2.66,0,0,1,.27-1.21,2.08,2.08,0,0,1,.67-.83,1.49,1.49,0,0,1,.86-.28,1.07,1.07,0,0,1,.61.18,1.43,1.43,0,0,1,.43.57l.14-.66H171l-1.06,5h-.61l.37-1.8m-1.62-1.07a1.28,1.28,0,0,0,.22.81.72.72,0,0,0,.56.25.84.84,0,0,0,.56-.24,1.57,1.57,0,0,0,.49-.7,2.49,2.49,0,0,0,.18-.9,1,1,0,0,0-.23-.69.75.75,0,0,0-.56-.27.89.89,0,0,0-.58.22,1.91,1.91,0,0,0-.5.78,2.39,2.39,0,0,0-.14.74"/><path class="cls-1" d="M173.72,64.23a1.86,1.86,0,0,1-1.34.74,1,1,0,0,1-.69-.24.78.78,0,0,1-.25-.59,5.7,5.7,0,0,1,.12-.8l.44-2.09h.61l-.48,2.33a1.9,1.9,0,0,0-.07.45.45.45,0,0,0,.13.33.5.5,0,0,0,.37.11,1.21,1.21,0,0,0,.52-.13,1.28,1.28,0,0,0,.42-.34,1.55,1.55,0,0,0,.3-.52,5,5,0,0,0,.17-.65l.33-1.58h.62l-.76,3.64h-.58l.14-.66"/><path class="cls-1" d="M177.55,64.44a2,2,0,0,1-.63.4,1.64,1.64,0,0,1-.62.13,1.13,1.13,0,0,1-.83-.3,1,1,0,0,1-.3-.75,1.12,1.12,0,0,1,.14-.55,1.27,1.27,0,0,1,.36-.37,1.85,1.85,0,0,1,.56-.2,6.62,6.62,0,0,1,.8-.07,3,3,0,0,0,.85-.12,2,2,0,0,0,.07-.42.43.43,0,0,0-.17-.35,1,1,0,0,0-.62-.17,1.13,1.13,0,0,0-.64.17.85.85,0,0,0-.36.5l-.63-.06a1.68,1.68,0,0,1,.6-.83,1.79,1.79,0,0,1,1.06-.29,1.71,1.71,0,0,1,1.08.32.75.75,0,0,1,.29.63,2.88,2.88,0,0,1-.09.67l-.2.91a3.14,3.14,0,0,0-.1.7,2.6,2.6,0,0,0,.08.5h-.62a1.66,1.66,0,0,1-.08-.45m.23-1.39a1,1,0,0,1-.28.07,4.2,4.2,0,0,1-.5.07,4.62,4.62,0,0,0-.77.12.71.71,0,0,0-.34.24.55.55,0,0,0-.11.34.62.62,0,0,0,.17.44.78.78,0,0,0,.53.17,1.08,1.08,0,0,0,.58-.16,1,1,0,0,0,.46-.47,2.55,2.55,0,0,0,.26-.82"/><path class="cls-1" d="M178.72,66.3l0-.58a1.89,1.89,0,0,0,.38,0,.71.71,0,0,0,.31-.08,1.27,1.27,0,0,0,.33-.42l.2-.36-.61-3.66H180l.28,1.84c.05.36.09.74.14,1.1L182,61.25h.64l-2.32,4.12a3,3,0,0,1-.6.82,1,1,0,0,1-.6.18,1.54,1.54,0,0,1-.42-.07"/><path class="cls-1" d="M185,64.89l-.38-3.64h.59l.18,1.62.06.93c0,.07,0,.22,0,.42.08-.24.13-.41.18-.53a4.46,4.46,0,0,1,.23-.55l.88-1.89h.67l.12,1.81c0,.28,0,.66,0,1.11a13.29,13.29,0,0,1,.57-1.26l.78-1.66h.62l-1.78,3.64h-.66L187,62.75c0-.14,0-.39,0-.78-.1.25-.2.51-.33.8l-1,2.12H185"/><path class="cls-1" d="M191.8,64.44a2,2,0,0,1-.63.4,1.64,1.64,0,0,1-.62.13,1.13,1.13,0,0,1-.83-.3,1,1,0,0,1-.3-.75,1.12,1.12,0,0,1,.14-.55,1.27,1.27,0,0,1,.36-.37,1.85,1.85,0,0,1,.56-.2,6.62,6.62,0,0,1,.8-.07,3,3,0,0,0,.85-.12,2,2,0,0,0,.07-.42.43.43,0,0,0-.17-.35,1,1,0,0,0-.62-.17,1.13,1.13,0,0,0-.64.17.85.85,0,0,0-.36.5l-.63-.06a1.68,1.68,0,0,1,.6-.83,1.79,1.79,0,0,1,1.06-.29,1.71,1.71,0,0,1,1.08.32.75.75,0,0,1,.29.63,2.88,2.88,0,0,1-.09.67l-.2.91a3.14,3.14,0,0,0-.1.7,2.6,2.6,0,0,0,.08.5h-.62a1.66,1.66,0,0,1-.08-.45m.23-1.39a1,1,0,0,1-.28.07,4.2,4.2,0,0,1-.5.07,4.62,4.62,0,0,0-.77.12.71.71,0,0,0-.34.24.55.55,0,0,0-.11.34.62.62,0,0,0,.17.44.78.78,0,0,0,.53.17,1.08,1.08,0,0,0,.58-.16,1,1,0,0,0,.46-.47,2.55,2.55,0,0,0,.26-.82"/><polygon class="cls-1" points="193.16 64.89 194.2 59.86 194.83 59.86 193.78 64.89 193.16 64.89"/><polygon class="cls-1" points="194.67 64.89 195.72 59.86 196.34 59.86 195.3 64.89 194.67 64.89"/><polygon class="cls-1" points="196.41 64.89 196.55 64.19 197.25 64.19 197.11 64.89 196.41 64.89"/><path class="cls-1" d="M200.14,64.89l1.05-5H202l.5,3.26a11.48,11.48,0,0,1,.14,1.24,12.81,12.81,0,0,1,.7-1.39l1.77-3.11H206l-1,5h-.66l.52-2.45a15.92,15.92,0,0,1,.53-1.89c-.14.32-.33.67-.53,1l-1.88,3.3h-.65l-.5-3.23a7.22,7.22,0,0,1-.11-1c0,.46-.11.8-.16,1.07l-.67,3.2h-.66"/><path class="cls-1" d="M208.31,64.44a2,2,0,0,1-.62.4,1.73,1.73,0,0,1-.63.13,1.16,1.16,0,0,1-.83-.3,1,1,0,0,1-.29-.75,1,1,0,0,1,.14-.55,1.16,1.16,0,0,1,.36-.37,1.68,1.68,0,0,1,.56-.2,6.41,6.41,0,0,1,.8-.07,2.89,2.89,0,0,0,.84-.12,1.59,1.59,0,0,0,.08-.42.43.43,0,0,0-.17-.35,1,1,0,0,0-.63-.17,1.15,1.15,0,0,0-.64.17,1,1,0,0,0-.36.5l-.62-.06a1.61,1.61,0,0,1,.59-.83,1.79,1.79,0,0,1,1.06-.29,1.67,1.67,0,0,1,1.08.32.75.75,0,0,1,.3.63,2.47,2.47,0,0,1-.1.67l-.2.91a3.7,3.7,0,0,0-.09.7,2.6,2.6,0,0,0,.08.5h-.63a3.12,3.12,0,0,1-.08-.45m.24-1.39a1.15,1.15,0,0,1-.28.07,4.55,4.55,0,0,1-.5.07,4.44,4.44,0,0,0-.77.12.66.66,0,0,0-.34.24.55.55,0,0,0-.11.34.62.62,0,0,0,.17.44.77.77,0,0,0,.53.17,1.13,1.13,0,0,0,.58-.16,1.08,1.08,0,0,0,.45-.47,2.8,2.8,0,0,0,.27-.82"/><path class="cls-1" d="M209.7,64.89l.77-3.64H211l-.16.73a2.67,2.67,0,0,1,.55-.62.9.9,0,0,1,.56-.2,1,1,0,0,1,.45.14l-.26.57a.64.64,0,0,0-.35-.12,1,1,0,0,0-.67.37,2.65,2.65,0,0,0-.53,1.3l-.31,1.47h-.6"/><path class="cls-1" d="M212.88,60.56l.15-.7h.61l-.14.7ZM212,64.89l.77-3.64h.62l-.77,3.64H212"/><path class="cls-1" d="M213.53,64.89l.77-3.64h.56l-.14.62a3,3,0,0,1,.69-.54,1.47,1.47,0,0,1,.65-.17.88.88,0,0,1,.69.25.83.83,0,0,1,.27.64,3.9,3.9,0,0,1-.1.64l-.47,2.2h-.62l.48-2.31a2.6,2.6,0,0,0,.08-.5.36.36,0,0,0-.12-.28.51.51,0,0,0-.36-.13,1.19,1.19,0,0,0-.86.35,2.36,2.36,0,0,0-.55,1.17l-.34,1.7h-.63"/><path class="cls-1" d="M220.05,63.66l.61.06a1.72,1.72,0,0,1-.6.84,1.66,1.66,0,0,1-1.12.41,1.49,1.49,0,0,1-.75-.19,1.33,1.33,0,0,1-.52-.53,2,2,0,0,1-.17-.83,2.5,2.5,0,0,1,.28-1.15,1.86,1.86,0,0,1,.72-.83,1.73,1.73,0,0,1,.95-.28,1.41,1.41,0,0,1,1,.4,1.49,1.49,0,0,1,.39,1.11,3.56,3.56,0,0,1,0,.55h-2.69v.2a1.21,1.21,0,0,0,.23.78.77.77,0,0,0,.57.27,1,1,0,0,0,.62-.2,1.42,1.42,0,0,0,.49-.61m-1.8-.91h2.05v-.14a1,1,0,0,0-.24-.72.76.76,0,0,0-.59-.25,1.1,1.1,0,0,0-.74.28,1.81,1.81,0,0,0-.48.83"/><path class="cls-1" d="M221.24,64.89l.76-3.64h.55l-.16.73a2.92,2.92,0,0,1,.55-.62.92.92,0,0,1,.56-.2,1,1,0,0,1,.45.14l-.26.57a.64.64,0,0,0-.35-.12,1,1,0,0,0-.67.37,2.75,2.75,0,0,0-.53,1.3l-.31,1.47h-.59"/><path class="cls-1" d="M223.59,63.64l.61,0a1.45,1.45,0,0,0,.08.45.67.67,0,0,0,.31.31,1.08,1.08,0,0,0,.52.13,1,1,0,0,0,.63-.17.49.49,0,0,0,.2-.39.45.45,0,0,0-.13-.3,1.56,1.56,0,0,0-.62-.36c-.33-.14-.53-.25-.63-.3a1.13,1.13,0,0,1-.36-.32.87.87,0,0,1-.11-.44.93.93,0,0,1,.35-.75,1.43,1.43,0,0,1,1-.31,1.52,1.52,0,0,1,1,.32,1.14,1.14,0,0,1,.38.83l-.61,0a.76.76,0,0,0-.23-.52.9.9,0,0,0-.63-.2.68.68,0,0,0-.5.16.41.41,0,0,0-.17.31.41.41,0,0,0,.14.3,3.54,3.54,0,0,0,.53.28,4,4,0,0,1,.91.48.91.91,0,0,1,.29.7,1,1,0,0,1-.17.54,1.09,1.09,0,0,1-.5.4,1.86,1.86,0,0,1-.81.16,1.91,1.91,0,0,1-1.08-.31,1.11,1.11,0,0,1-.41-1"/><polygon class="cls-1" points="0.72 55.58 1.66 51.13 0 51.13 0.13 50.55 4.08 50.55 3.97 51.13 2.33 51.13 1.39 55.58 0.72 55.58"/><path class="cls-1" d="M3.72,55.58l1-5h.62L5,52.48A2.13,2.13,0,0,1,5.63,52a1.3,1.3,0,0,1,.62-.16.94.94,0,0,1,.7.25.77.77,0,0,1,.25.63,3.52,3.52,0,0,1-.11.7l-.45,2.16H6l.47-2.21a4.75,4.75,0,0,0,.09-.61.41.41,0,0,0-.13-.28.46.46,0,0,0-.34-.12,1.23,1.23,0,0,0-.66.19A1.12,1.12,0,0,0,5,53a3.93,3.93,0,0,0-.32,1l-.33,1.56H3.72"/><path class="cls-1" d="M10.38,54.34l.6.07a1.72,1.72,0,0,1-.59.84,1.66,1.66,0,0,1-1.12.41,1.61,1.61,0,0,1-.75-.19A1.39,1.39,0,0,1,8,54.94a2,2,0,0,1-.17-.83A2.57,2.57,0,0,1,8.11,53a1.88,1.88,0,0,1,.72-.82,1.74,1.74,0,0,1,.95-.29,1.38,1.38,0,0,1,1,.41,1.49,1.49,0,0,1,.39,1.11,3.56,3.56,0,0,1,0,.55H8.47v.2a1.23,1.23,0,0,0,.23.78.77.77,0,0,0,.57.27A1.08,1.08,0,0,0,9.89,55a1.37,1.37,0,0,0,.49-.61m-1.8-.9h2.05V53.3a1,1,0,0,0-.24-.72.78.78,0,0,0-.59-.25,1.1,1.1,0,0,0-.74.28,1.72,1.72,0,0,0-.48.83"/><path class="cls-1" d="M16.16,55.05a1.52,1.52,0,0,1-1.11.61,1.12,1.12,0,0,1-.86-.38,1.56,1.56,0,0,1-.35-1.11A2.84,2.84,0,0,1,14.11,53a2.31,2.31,0,0,1,.69-.83,1.45,1.45,0,0,1,.83-.28,1.08,1.08,0,0,1,1,.66l.42-2h.61l-1,5h-.58l.11-.53m-1.71-1a1.91,1.91,0,0,0,.08.61.9.9,0,0,0,.25.36.77.77,0,0,0,.45.14.89.89,0,0,0,.75-.44,2.17,2.17,0,0,0,.47-1.44.88.88,0,0,0-.23-.67.69.69,0,0,0-.56-.25.77.77,0,0,0-.41.11,1.1,1.1,0,0,0-.37.33,2.17,2.17,0,0,0-.3.61,2,2,0,0,0-.13.64"/><path class="cls-1" d="M20.34,54.34l.61.07a1.72,1.72,0,0,1-.59.84,1.67,1.67,0,0,1-1.13.41,1.6,1.6,0,0,1-.74-.19,1.33,1.33,0,0,1-.52-.53,2,2,0,0,1-.17-.83A2.57,2.57,0,0,1,18.08,53a1.88,1.88,0,0,1,.72-.82,1.71,1.71,0,0,1,.95-.29,1.38,1.38,0,0,1,1,.41,1.49,1.49,0,0,1,.39,1.11,3.56,3.56,0,0,1,0,.55H18.44v.2a1.23,1.23,0,0,0,.23.78.77.77,0,0,0,.56.27,1.08,1.08,0,0,0,.63-.21,1.35,1.35,0,0,0,.48-.61m-1.79-.9h2V53.3a1,1,0,0,0-.23-.72.78.78,0,0,0-.59-.25,1.1,1.1,0,0,0-.74.28,1.72,1.72,0,0,0-.48.83"/><path class="cls-1" d="M21.33,57l1.06-5H23l-.11.5a2,2,0,0,1,.56-.46,1.15,1.15,0,0,1,1.41.25,1.54,1.54,0,0,1,.34,1.08,2.69,2.69,0,0,1-.19,1,2.28,2.28,0,0,1-.46.75,2.08,2.08,0,0,1-.57.42,1.39,1.39,0,0,1-.56.13,1.09,1.09,0,0,1-1-.66L22,57h-.62m1.23-2.88a1.87,1.87,0,0,0,.06.57.75.75,0,0,0,.74.5,1,1,0,0,0,.86-.6,2.6,2.6,0,0,0,.33-1.25,1.08,1.08,0,0,0-.22-.7.7.7,0,0,0-.55-.27.87.87,0,0,0-.44.13,1.09,1.09,0,0,0-.37.37,3.15,3.15,0,0,0-.3.61,2,2,0,0,0-.11.64"/><path class="cls-1" d="M27.08,55.08l-.11.5a1.52,1.52,0,0,1-.42.06.86.86,0,0,1-.6-.19.43.43,0,0,1-.17-.37,3.2,3.2,0,0,1,.1-.55l.43-2.12h-.48l.09-.47h.5l.19-.91.7-.42L27,51.94h.63l-.11.47h-.61l-.42,2c-.05.27-.08.42-.08.47a.19.19,0,0,0,.06.17.37.37,0,0,0,.2,0c.14,0,.27,0,.38,0"/><path class="cls-1" d="M27.64,55.58l1.05-5h.62l-.4,1.93a2.13,2.13,0,0,1,.64-.48,1.3,1.3,0,0,1,.62-.16.94.94,0,0,1,.7.25.77.77,0,0,1,.25.63,4.12,4.12,0,0,1-.1.7l-.46,2.16h-.62l.47-2.21a4.75,4.75,0,0,0,.09-.61.41.41,0,0,0-.13-.28.46.46,0,0,0-.34-.12,1.23,1.23,0,0,0-.66.19,1.18,1.18,0,0,0-.46.48,3.93,3.93,0,0,0-.32,1l-.32,1.56h-.63"/><path class="cls-1" d="M31.69,54.33l.61,0a1.52,1.52,0,0,0,.07.45.87.87,0,0,0,.32.31A1.13,1.13,0,0,0,33.83,55a.47.47,0,0,0,.2-.39.47.47,0,0,0-.12-.29,1.71,1.71,0,0,0-.63-.36,6.21,6.21,0,0,1-.62-.3.89.89,0,0,1-.36-.33.84.84,0,0,1-.11-.43,1,1,0,0,1,.34-.75,1.4,1.4,0,0,1,1-.32,1.52,1.52,0,0,1,1,.33,1.11,1.11,0,0,1,.37.83l-.61,0a.72.72,0,0,0-.23-.52.87.87,0,0,0-.63-.2.68.68,0,0,0-.5.15.45.45,0,0,0-.17.32.37.37,0,0,0,.14.29,2.29,2.29,0,0,0,.53.28,4,4,0,0,1,.91.49.92.92,0,0,1,.3.7,1,1,0,0,1-.18.53,1,1,0,0,1-.5.41,1.86,1.86,0,0,1-.81.16,1.84,1.84,0,0,1-1.08-.32,1.08,1.08,0,0,1-.4-1"/><path class="cls-1" d="M37.22,55.58,38,51.94h.6l-.12.59a2.22,2.22,0,0,1,.61-.53,1.18,1.18,0,0,1,.61-.16.9.9,0,0,1,.56.19.78.78,0,0,1,.3.5,2,2,0,0,1,.58-.52,1.46,1.46,0,0,1,.65-.17,1,1,0,0,1,.69.22.77.77,0,0,1,.23.61,4.83,4.83,0,0,1-.07.56l-.5,2.35H41.5l.5-2.41a2.18,2.18,0,0,0,.08-.42.33.33,0,0,0-.13-.28.38.38,0,0,0-.31-.11,1.23,1.23,0,0,0-.58.17,1.32,1.32,0,0,0-.43.45,2.79,2.79,0,0,0-.29.83L40,55.58h-.61l.52-2.47a2.14,2.14,0,0,0,0-.35.38.38,0,0,0-.11-.29.36.36,0,0,0-.29-.11,1.23,1.23,0,0,0-.57.17,1.38,1.38,0,0,0-.46.47,3.15,3.15,0,0,0-.29.86l-.37,1.72h-.61"/><path class="cls-1" d="M45.59,55.13a2.17,2.17,0,0,1-.62.4,1.69,1.69,0,0,1-.63.13,1.12,1.12,0,0,1-.82-.3,1,1,0,0,1-.3-.75,1.12,1.12,0,0,1,.14-.55,1.16,1.16,0,0,1,.36-.37,1.77,1.77,0,0,1,.56-.21,7.08,7.08,0,0,1,.8-.06,2.89,2.89,0,0,0,.84-.12,1.67,1.67,0,0,0,.08-.42.41.41,0,0,0-.17-.35,1,1,0,0,0-.63-.17,1.15,1.15,0,0,0-.64.17,1,1,0,0,0-.36.5L43.58,53a1.66,1.66,0,0,1,.59-.83,1.79,1.79,0,0,1,1.06-.3,1.62,1.62,0,0,1,1.08.33.73.73,0,0,1,.3.63,2.88,2.88,0,0,1-.09.67l-.21.91a3.7,3.7,0,0,0-.09.7,2.6,2.6,0,0,0,.08.5h-.63a3.12,3.12,0,0,1-.08-.45m.24-1.4a.77.77,0,0,1-.28.08,4.55,4.55,0,0,1-.5.07,3.62,3.62,0,0,0-.77.12.76.76,0,0,0-.34.23.56.56,0,0,0-.11.35A.62.62,0,0,0,44,55a.78.78,0,0,0,.53.17,1.13,1.13,0,0,0,.58-.16,1.08,1.08,0,0,0,.45-.47,2.6,2.6,0,0,0,.27-.83"/><path class="cls-1" d="M47.11,55.58l.77-3.64h.54l-.15.73a2.66,2.66,0,0,1,.54-.62,1,1,0,0,1,.57-.21,1.22,1.22,0,0,1,.45.14l-.27.58a.56.56,0,0,0-.34-.12.94.94,0,0,0-.67.37,2.52,2.52,0,0,0-.53,1.3l-.32,1.47h-.59"/><polygon class="cls-1" points="49.53 55.58 50.59 50.55 51.2 50.55 50.56 53.67 52.38 51.94 53.19 51.94 51.64 53.3 52.58 55.58 51.89 55.58 51.17 53.7 50.41 54.36 50.16 55.58 49.53 55.58"/><path class="cls-1" d="M55.78,54.34l.61.07a1.78,1.78,0,0,1-.59.84,1.69,1.69,0,0,1-1.13.41,1.67,1.67,0,0,1-.75-.19,1.3,1.3,0,0,1-.51-.53,2,2,0,0,1-.18-.83A2.59,2.59,0,0,1,53.52,53a1.87,1.87,0,0,1,.71-.82,1.74,1.74,0,0,1,1-.29,1.39,1.39,0,0,1,1,.41,1.53,1.53,0,0,1,.39,1.11,3.62,3.62,0,0,1,0,.55H53.88v.2a1.17,1.17,0,0,0,.23.78.75.75,0,0,0,.56.27A1.1,1.1,0,0,0,55.3,55a1.35,1.35,0,0,0,.48-.61m-1.8-.9H56V53.3a1,1,0,0,0-.23-.72.79.79,0,0,0-.6-.25,1.1,1.1,0,0,0-.73.28,1.74,1.74,0,0,0-.49.83"/><path class="cls-1" d="M59.53,55.05a1.52,1.52,0,0,1-1.11.61,1.15,1.15,0,0,1-.86-.38,1.6,1.6,0,0,1-.34-1.11A2.84,2.84,0,0,1,57.48,53a2.41,2.41,0,0,1,.69-.83,1.5,1.5,0,0,1,.83-.28,1.11,1.11,0,0,1,1,.66l.42-2h.61l-1,5h-.58l.11-.53m-1.7-1a1.91,1.91,0,0,0,.08.61.81.81,0,0,0,.25.36.75.75,0,0,0,.45.14.92.92,0,0,0,.75-.44,2.23,2.23,0,0,0,.47-1.44.89.89,0,0,0-.24-.67.68.68,0,0,0-.56-.25.71.71,0,0,0-.4.11,1.12,1.12,0,0,0-.38.33,2.17,2.17,0,0,0-.3.61,2.3,2.3,0,0,0-.12.64"/><path class="cls-1" d="M63.08,55.58l.76-3.64h.57l-.14.62A3.27,3.27,0,0,1,65,52a1.62,1.62,0,0,1,.66-.17.91.91,0,0,1,.69.25.85.85,0,0,1,.26.64,3.5,3.5,0,0,1-.09.64L66,55.58h-.62l.48-2.32a2.49,2.49,0,0,0,.08-.5.41.41,0,0,0-.13-.28.54.54,0,0,0-.36-.12,1.23,1.23,0,0,0-.86.34,2.45,2.45,0,0,0-.54,1.17l-.35,1.71h-.62"/><path class="cls-1" d="M69.72,54.34l.61.07a1.74,1.74,0,0,1-.6.84,1.65,1.65,0,0,1-1.12.41,1.61,1.61,0,0,1-.75-.19,1.39,1.39,0,0,1-.52-.53,2.15,2.15,0,0,1-.17-.83A2.71,2.71,0,0,1,67.45,53a2,2,0,0,1,.72-.82,1.74,1.74,0,0,1,1-.29,1.39,1.39,0,0,1,1,.41,1.53,1.53,0,0,1,.39,1.11,3.62,3.62,0,0,1,0,.55H67.81v.2a1.17,1.17,0,0,0,.24.78.74.74,0,0,0,.56.27,1.05,1.05,0,0,0,.62-.21,1.31,1.31,0,0,0,.49-.61m-1.8-.9h2V53.3a1,1,0,0,0-.24-.72.75.75,0,0,0-.59-.25,1.1,1.1,0,0,0-.73.28,1.74,1.74,0,0,0-.49.83"/><path class="cls-1" d="M73.49,55.13a2.35,2.35,0,0,1-.63.4,1.68,1.68,0,0,1-.62.13,1.13,1.13,0,0,1-.83-.3,1,1,0,0,1-.3-.75,1.12,1.12,0,0,1,.14-.55,1.16,1.16,0,0,1,.36-.37,1.77,1.77,0,0,1,.56-.21,7.08,7.08,0,0,1,.8-.06,2.89,2.89,0,0,0,.84-.12,1.67,1.67,0,0,0,.08-.42.41.41,0,0,0-.17-.35,1,1,0,0,0-.63-.17,1.17,1.17,0,0,0-.64.17,1,1,0,0,0-.36.5L71.47,53a1.66,1.66,0,0,1,.59-.83,1.8,1.8,0,0,1,1.07-.3,1.61,1.61,0,0,1,1.07.33.73.73,0,0,1,.3.63,2.88,2.88,0,0,1-.09.67l-.21.91a3.7,3.7,0,0,0-.09.7,2.6,2.6,0,0,0,.08.5h-.63a2.24,2.24,0,0,1-.07-.45m.23-1.4a.77.77,0,0,1-.28.08,4.55,4.55,0,0,1-.5.07,3.62,3.62,0,0,0-.77.12.76.76,0,0,0-.34.23.56.56,0,0,0-.11.35.62.62,0,0,0,.17.44.78.78,0,0,0,.53.17A1.1,1.1,0,0,0,73,55a1.08,1.08,0,0,0,.45-.47,2.6,2.6,0,0,0,.27-.83"/><path class="cls-1" d="M75,55.58l.77-3.64h.54l-.15.73a2.66,2.66,0,0,1,.54-.62,1,1,0,0,1,.57-.21,1.17,1.17,0,0,1,.45.14l-.27.58a.56.56,0,0,0-.34-.12.94.94,0,0,0-.67.37,2.52,2.52,0,0,0-.53,1.3l-.32,1.47H75"/><path class="cls-1" d="M80.89,55.08l-.11.5a1.52,1.52,0,0,1-.42.06.84.84,0,0,1-.59-.19.43.43,0,0,1-.18-.37,3.2,3.2,0,0,1,.1-.55l.43-2.12h-.48l.09-.47h.5l.19-.91.7-.42-.28,1.33h.63l-.11.47h-.61l-.42,2c0,.27-.08.42-.08.47a.22.22,0,0,0,.06.17.38.38,0,0,0,.21,0,3.7,3.7,0,0,0,.37,0"/><path class="cls-1" d="M81.47,55.58l1-5h.62l-.4,1.93a2.13,2.13,0,0,1,.64-.48,1.3,1.3,0,0,1,.62-.16.94.94,0,0,1,.7.25.77.77,0,0,1,.25.63,3.52,3.52,0,0,1-.11.7l-.45,2.16h-.62l.47-2.21a4.75,4.75,0,0,0,.09-.61.41.41,0,0,0-.13-.28.46.46,0,0,0-.34-.12,1.23,1.23,0,0,0-.66.19,1.12,1.12,0,0,0-.46.48,3.93,3.93,0,0,0-.32,1l-.33,1.56h-.62"/><path class="cls-1" d="M88.11,54.34l.61.07a1.74,1.74,0,0,1-.6.84,1.65,1.65,0,0,1-1.12.41,1.61,1.61,0,0,1-.75-.19,1.39,1.39,0,0,1-.52-.53,2.15,2.15,0,0,1-.17-.83A2.71,2.71,0,0,1,85.84,53a2,2,0,0,1,.72-.82,1.74,1.74,0,0,1,1-.29,1.39,1.39,0,0,1,1,.41,1.53,1.53,0,0,1,.39,1.11,3.62,3.62,0,0,1,0,.55H86.2v.2a1.17,1.17,0,0,0,.24.78.74.74,0,0,0,.56.27,1.05,1.05,0,0,0,.62-.21,1.31,1.31,0,0,0,.49-.61m-1.8-.9h2V53.3a1,1,0,0,0-.24-.72.75.75,0,0,0-.59-.25,1.1,1.1,0,0,0-.73.28,1.74,1.74,0,0,0-.49.83"/><path class="cls-1" d="M92.39,55.58l-.31-5h.69l.1,2.48a9.52,9.52,0,0,1,0,1v.66c.28-.58.49-1,.61-1.22l1.53-2.89h.69l.17,2.93c0,.33,0,.74,0,1.22,0-.11.11-.28.22-.51s.3-.64.38-.82L98,50.55h.69l-2.56,5h-.72l-.17-3c0-.27,0-.58,0-1-.14.33-.25.58-.34.75l-1.75,3.27h-.69"/><path class="cls-1" d="M98.13,55.58l1-5h.63l-.41,1.93A2.41,2.41,0,0,1,100,52a1.31,1.31,0,0,1,.63-.16,1,1,0,0,1,.7.25.81.81,0,0,1,.25.63,3.52,3.52,0,0,1-.11.7l-.45,2.16h-.63l.47-2.21a4.75,4.75,0,0,0,.09-.61.39.39,0,0,0-.12-.28.5.5,0,0,0-.34-.12,1.18,1.18,0,0,0-.66.19,1.21,1.21,0,0,0-.47.48,3.61,3.61,0,0,0-.31,1l-.33,1.56h-.62"/><path class="cls-1" d="M104.55,55.13a2.21,2.21,0,0,1-.63.4,1.64,1.64,0,0,1-.62.13,1.13,1.13,0,0,1-.83-.3,1,1,0,0,1-.3-.75,1.12,1.12,0,0,1,.14-.55,1.27,1.27,0,0,1,.36-.37,1.86,1.86,0,0,1,.56-.21,7.31,7.31,0,0,1,.8-.06,3,3,0,0,0,.85-.12,2.13,2.13,0,0,0,.07-.42.41.41,0,0,0-.17-.35,1,1,0,0,0-.62-.17,1.13,1.13,0,0,0-.64.17.85.85,0,0,0-.36.5l-.63-.06a1.68,1.68,0,0,1,.6-.83,1.79,1.79,0,0,1,1.06-.3,1.66,1.66,0,0,1,1.08.33.75.75,0,0,1,.29.63,2.88,2.88,0,0,1-.09.67l-.2.91a3.14,3.14,0,0,0-.1.7,2.6,2.6,0,0,0,.08.5h-.62a1.66,1.66,0,0,1-.08-.45m.23-1.4a.77.77,0,0,1-.28.08,4.2,4.2,0,0,1-.5.07,3.75,3.75,0,0,0-.77.12.76.76,0,0,0-.34.23.56.56,0,0,0-.11.35A.62.62,0,0,0,103,55a.78.78,0,0,0,.53.17,1.08,1.08,0,0,0,.58-.16,1,1,0,0,0,.46-.47,2.62,2.62,0,0,0,.26-.83"/><path class="cls-1" d="M106.08,55.58l.76-3.64h.55l-.16.73a2.92,2.92,0,0,1,.55-.62,1,1,0,0,1,.56-.21,1.21,1.21,0,0,1,.46.14l-.27.58a.56.56,0,0,0-.34-.12.94.94,0,0,0-.67.37,2.6,2.6,0,0,0-.54,1.3l-.31,1.47h-.59"/><path class="cls-1" d="M108.56,55.58l.67-3.17h-.56l.11-.47h.55l.11-.53a1.79,1.79,0,0,1,.17-.55.83.83,0,0,1,.28-.28,1.06,1.06,0,0,1,.55-.13,2.73,2.73,0,0,1,.67.11l-.11.53a3,3,0,0,0-.53-.07.4.4,0,0,0-.27.09,1,1,0,0,0-.17.44l-.08.39h.69l-.09.47h-.69l-.67,3.17h-.63"/><path class="cls-1" d="M110.58,54.33l.61,0a1.25,1.25,0,0,0,.08.45.77.77,0,0,0,.31.31,1,1,0,0,0,.51.13,1,1,0,0,0,.63-.18.47.47,0,0,0,.2-.39.42.42,0,0,0-.12-.29,1.71,1.71,0,0,0-.63-.36,6.21,6.21,0,0,1-.62-.3,1,1,0,0,1-.36-.33.84.84,0,0,1-.11-.43,1,1,0,0,1,.34-.75,1.4,1.4,0,0,1,1-.32,1.52,1.52,0,0,1,1,.33,1.11,1.11,0,0,1,.37.83l-.61,0a.72.72,0,0,0-.23-.52.87.87,0,0,0-.63-.2.7.7,0,0,0-.5.15.45.45,0,0,0-.17.32.37.37,0,0,0,.14.29,2.29,2.29,0,0,0,.53.28,3.8,3.8,0,0,1,.91.49.92.92,0,0,1,.3.7,1.1,1.1,0,0,1-.17.53,1.16,1.16,0,0,1-.5.41,1.91,1.91,0,0,1-.82.16,1.84,1.84,0,0,1-1.08-.32,1.08,1.08,0,0,1-.4-1"/><path class="cls-1" d="M116.23,55.58l1-5h.66l.84,1.89c.27.57.47,1.06.63,1.45.07.23.18.53.29.92.07-.42.14-.86.24-1.31l.62-3h.66l-1.06,5h-.66l-1.25-2.91a10.16,10.16,0,0,1-.52-1.36c0,.33-.1.74-.2,1.2l-.64,3.07h-.66"/><path class="cls-1" d="M121.36,54.19a2.55,2.55,0,0,1,.62-1.77,1.73,1.73,0,0,1,1.36-.58,1.39,1.39,0,0,1,1.07.43,1.51,1.51,0,0,1,.4,1.1,2.72,2.72,0,0,1-.26,1.18,1.92,1.92,0,0,1-.72.82,1.82,1.82,0,0,1-1,.29,1.86,1.86,0,0,1-.78-.18,1.3,1.3,0,0,1-.53-.51,1.82,1.82,0,0,1-.17-.78m.62-.07a1.19,1.19,0,0,0,.24.8.86.86,0,0,0,.64.27,1,1,0,0,0,.39-.08,1.11,1.11,0,0,0,.36-.25,1.78,1.78,0,0,0,.28-.38,1.73,1.73,0,0,0,.2-.46,1.89,1.89,0,0,0,.11-.65,1,1,0,0,0-.25-.76.79.79,0,0,0-.62-.28,1,1,0,0,0-.55.14,1.79,1.79,0,0,0-.44.4,2.41,2.41,0,0,0-.28.63,4.05,4.05,0,0,0-.08.62"/><path class="cls-1" d="M128.7,55.58l.8-3.8a3.94,3.94,0,0,1-1.44.64l.11-.56a4.75,4.75,0,0,0,.91-.49,6.91,6.91,0,0,0,.69-.51,1.81,1.81,0,0,0,.26-.33h.36l-1.06,5h-.63"/><path class="cls-1" d="M131.38,55.58l.15-.71h.7l-.12.61a1.65,1.65,0,0,1-.36.83.86.86,0,0,1-.58.28l.06-.26a.86.86,0,0,0,.54-.75h-.39"/><path class="cls-1" d="M135.45,55.58a3.4,3.4,0,0,1,.27-.75,2.06,2.06,0,0,1,.45-.58,12,12,0,0,1,1.1-.92c.32-.27.54-.46.65-.57a1.94,1.94,0,0,0,.38-.53,1.06,1.06,0,0,0,.08-.37.85.85,0,0,0-.85-.84.82.82,0,0,0-.62.25,1.5,1.5,0,0,0-.38.79l-.61-.09a1.65,1.65,0,0,1,.52-1,1.56,1.56,0,0,1,1.08-.39,1.82,1.82,0,0,1,.78.17,1.08,1.08,0,0,1,.51.5,1.29,1.29,0,0,1,.19.67,1.53,1.53,0,0,1-.36,1,8.18,8.18,0,0,1-1.3,1.14,8.48,8.48,0,0,0-.68.59,2.49,2.49,0,0,0-.33.46h2.25l-.13.56h-3"/><path class="cls-1" d="M139.39,55.58l.16-.71h.7l-.13.61a1.56,1.56,0,0,1-.35.83.89.89,0,0,1-.58.28l.06-.26c.27-.08.45-.33.53-.75h-.39"/><path class="cls-1" d="M143.45,54.27l.6-.08a1.19,1.19,0,0,0,.31.76.89.89,0,0,0,.61.22,1.09,1.09,0,0,0,.8-.33,1.07,1.07,0,0,0,.32-.76.75.75,0,0,0-.25-.6.9.9,0,0,0-.67-.25l-.19,0,.1-.53h.17a1.1,1.1,0,0,0,.81-.25.78.78,0,0,0,.3-.64.78.78,0,0,0-.23-.57.73.73,0,0,0-.58-.25.81.81,0,0,0-.6.25,1.16,1.16,0,0,0-.34.68l-.61-.12a1.73,1.73,0,0,1,.58-1,1.58,1.58,0,0,1,1-.34,1.33,1.33,0,0,1,1,.38,1.13,1.13,0,0,1,.39.9,1.24,1.24,0,0,1-.21.71,1.57,1.57,0,0,1-.61.48,1.35,1.35,0,0,1,.42.44.92.92,0,0,1,.15.56,1.58,1.58,0,0,1-.51,1.17,1.65,1.65,0,0,1-1.2.49,1.58,1.58,0,0,1-1.1-.38,1.46,1.46,0,0,1-.47-1"/><path class="cls-1" d="M147.42,55.58l.16-.71h.7l-.12.61a1.65,1.65,0,0,1-.36.83.86.86,0,0,1-.58.28l.06-.26c.27-.08.45-.33.53-.75h-.39"/><path class="cls-1" d="M153.19,55.58l.28-1.28h-2.06l.14-.63,2.81-3.12h.52l-.68,3.2h.71l-.11.55h-.71l-.28,1.28Zm.39-1.83.44-2.11-1.88,2.11h1.44"/><path class="cls-1" d="M159.78,55.13a2.17,2.17,0,0,1-.62.4,1.73,1.73,0,0,1-.63.13,1.16,1.16,0,0,1-.83-.3,1,1,0,0,1-.29-.75,1,1,0,0,1,.14-.55,1.16,1.16,0,0,1,.36-.37,1.68,1.68,0,0,1,.56-.21,6.87,6.87,0,0,1,.8-.06,2.89,2.89,0,0,0,.84-.12,1.67,1.67,0,0,0,.08-.42.44.44,0,0,0-.17-.35,1,1,0,0,0-.63-.17,1.13,1.13,0,0,0-.64.17,1,1,0,0,0-.36.5l-.62-.06a1.61,1.61,0,0,1,.59-.83,1.79,1.79,0,0,1,1.06-.3,1.66,1.66,0,0,1,1.08.33.75.75,0,0,1,.3.63,2.47,2.47,0,0,1-.1.67l-.2.91a3.7,3.7,0,0,0-.09.7,3.39,3.39,0,0,0,.07.5h-.62a3.12,3.12,0,0,1-.08-.45m.24-1.4a.82.82,0,0,1-.29.08,3.89,3.89,0,0,1-.5.07,3.5,3.5,0,0,0-.76.12.8.8,0,0,0-.35.23.66.66,0,0,0,.07.79.75.75,0,0,0,.53.17,1.13,1.13,0,0,0,.58-.16,1.08,1.08,0,0,0,.45-.47,2.88,2.88,0,0,0,.27-.83"/><path class="cls-1" d="M161.3,55.58l.76-3.64h.57l-.15.62a3.29,3.29,0,0,1,.69-.55,1.62,1.62,0,0,1,.66-.17.93.93,0,0,1,.69.25.85.85,0,0,1,.26.64,3.5,3.5,0,0,1-.09.64l-.47,2.21h-.63l.49-2.32a2.49,2.49,0,0,0,.08-.5.41.41,0,0,0-.13-.28.54.54,0,0,0-.36-.12,1.22,1.22,0,0,0-.86.34,2.45,2.45,0,0,0-.54,1.17l-.35,1.71h-.62"/><path class="cls-1" d="M167.73,55.05a1.49,1.49,0,0,1-1.1.61,1.12,1.12,0,0,1-.86-.38,1.56,1.56,0,0,1-.35-1.11,2.84,2.84,0,0,1,.27-1.22,2.31,2.31,0,0,1,.69-.83,1.45,1.45,0,0,1,.82-.28,1.1,1.1,0,0,1,1,.66l.42-2h.61l-1.05,5h-.57l.1-.53m-1.7-1a1.91,1.91,0,0,0,.08.61.9.9,0,0,0,.25.36.75.75,0,0,0,.45.14.92.92,0,0,0,.75-.44,2.17,2.17,0,0,0,.47-1.44.92.92,0,0,0-.23-.67.7.7,0,0,0-.57-.25.71.71,0,0,0-.4.11,1.12,1.12,0,0,0-.38.33,1.93,1.93,0,0,0-.29.61,2,2,0,0,0-.13.64"/><path class="cls-1" d="M172.74,55.08l-.11.5a1.59,1.59,0,0,1-.43.06.84.84,0,0,1-.59-.19.43.43,0,0,1-.17-.37,4,4,0,0,1,.09-.55l.44-2.12h-.48l.09-.47h.5l.19-.91.7-.42-.28,1.33h.62l-.11.47h-.61l-.42,2c0,.27-.08.42-.08.47a.19.19,0,0,0,.07.17.34.34,0,0,0,.2,0c.14,0,.27,0,.38,0"/><path class="cls-1" d="M173.3,55.58l1-5H175l-.41,1.93a2.41,2.41,0,0,1,.64-.48,1.34,1.34,0,0,1,.63-.16,1,1,0,0,1,.7.25.81.81,0,0,1,.25.63,3.52,3.52,0,0,1-.11.7l-.45,2.16h-.63l.47-2.21a5.69,5.69,0,0,0,.1-.61.41.41,0,0,0-.13-.28.5.5,0,0,0-.34-.12,1.18,1.18,0,0,0-.66.19,1.21,1.21,0,0,0-.47.48,3.61,3.61,0,0,0-.31,1l-.33,1.56h-.62"/><path class="cls-1" d="M180,54.34l.61.07a1.78,1.78,0,0,1-.59.84,1.67,1.67,0,0,1-1.13.41,1.6,1.6,0,0,1-.74-.19,1.33,1.33,0,0,1-.52-.53,2,2,0,0,1-.17-.83,2.57,2.57,0,0,1,.28-1.16,1.88,1.88,0,0,1,.72-.82,1.71,1.71,0,0,1,1-.29,1.38,1.38,0,0,1,1,.41,1.49,1.49,0,0,1,.39,1.11,2.68,2.68,0,0,1-.05.55h-2.68v.2a1.23,1.23,0,0,0,.23.78.77.77,0,0,0,.56.27,1.08,1.08,0,0,0,.63-.21,1.35,1.35,0,0,0,.48-.61m-1.79-.9h2V53.3a1,1,0,0,0-.23-.72.78.78,0,0,0-.59-.25,1.1,1.1,0,0,0-.74.28,1.72,1.72,0,0,0-.48.83"/><path class="cls-1" d="M183.36,55.58l1-5h.83l.5,3.26a11.21,11.21,0,0,1,.14,1.24,11.22,11.22,0,0,1,.7-1.39l1.76-3.11h.83l-1,5h-.66l.52-2.46a17.05,17.05,0,0,1,.53-1.89c-.14.33-.33.68-.53,1.05l-1.88,3.3h-.66l-.5-3.24c0-.29-.09-.64-.11-1a10.29,10.29,0,0,1-.15,1.06L184,55.58h-.66"/><path class="cls-1" d="M191.67,54.92a1.84,1.84,0,0,1-1.34.74,1,1,0,0,1-.69-.24.79.79,0,0,1-.25-.59,4.8,4.8,0,0,1,.13-.8l.43-2.09h.61l-.48,2.33a1.79,1.79,0,0,0-.06.45.45.45,0,0,0,.12.33.56.56,0,0,0,.38.11A1.2,1.2,0,0,0,191,55a1.28,1.28,0,0,0,.42-.34,1.65,1.65,0,0,0,.3-.52,3.76,3.76,0,0,0,.17-.65l.33-1.58h.63l-.77,3.64h-.58l.14-.66"/><polygon class="cls-1" points="193.11 55.58 194.16 50.55 194.78 50.55 193.74 55.58 193.11 55.58"/><path class="cls-1" d="M196.25,55.08l-.11.5a1.52,1.52,0,0,1-.42.06.84.84,0,0,1-.59-.19.43.43,0,0,1-.18-.37,3.2,3.2,0,0,1,.1-.55l.43-2.12H195l.09-.47h.5l.19-.91.7-.42-.28,1.33h.63l-.11.47h-.61l-.42,2c-.05.27-.08.42-.08.47a.22.22,0,0,0,.06.17.38.38,0,0,0,.21,0,3.7,3.7,0,0,0,.37,0"/><path class="cls-1" d="M197.7,51.25l.16-.7h.61l-.14.7Zm-.9,4.33.76-3.64h.63l-.77,3.64h-.62"/><polygon class="cls-1" points="198.55 54.06 198.67 53.45 200.58 53.45 200.44 54.06 198.55 54.06"/><path class="cls-1" d="M200.56,57l1.06-5h.58l-.11.5a2,2,0,0,1,.57-.46,1.13,1.13,0,0,1,1.4.25,1.5,1.5,0,0,1,.35,1.08,2.89,2.89,0,0,1-.19,1,2.29,2.29,0,0,1-.47.75,2.21,2.21,0,0,1-.56.42,1.47,1.47,0,0,1-.57.13,1.1,1.1,0,0,1-1-.66l-.42,2h-.63m1.24-2.88a1.59,1.59,0,0,0,.06.57.83.83,0,0,0,.26.36.89.89,0,0,0,.47.14,1,1,0,0,0,.86-.6,2.6,2.6,0,0,0,.33-1.25,1.08,1.08,0,0,0-.22-.7.7.7,0,0,0-.54-.27.87.87,0,0,0-.44.13,1.11,1.11,0,0,0-.38.37,2.65,2.65,0,0,0-.29.61,2,2,0,0,0-.11.64"/><path class="cls-1" d="M207.33,54.92a1.86,1.86,0,0,1-1.35.74,1,1,0,0,1-.68-.24.76.76,0,0,1-.25-.59,4.49,4.49,0,0,1,.12-.8l.44-2.09h.61l-.49,2.33a2.42,2.42,0,0,0-.06.45.45.45,0,0,0,.13.33.53.53,0,0,0,.37.11,1.25,1.25,0,0,0,.52-.13,1.28,1.28,0,0,0,.42-.34,1.87,1.87,0,0,0,.3-.52,5,5,0,0,0,.17-.65l.33-1.58h.62l-.76,3.64h-.58l.14-.66"/><path class="cls-1" d="M208.81,55.58l.77-3.64h.55l-.16.73a2.67,2.67,0,0,1,.55-.62.91.91,0,0,1,.56-.21,1.17,1.17,0,0,1,.45.14l-.26.58a.57.57,0,0,0-.35-.12,1,1,0,0,0-.67.37,2.61,2.61,0,0,0-.53,1.3l-.31,1.47h-.6"/><path class="cls-1" d="M210.92,57l1.06-5h.58l-.11.5A2,2,0,0,1,213,52a1.13,1.13,0,0,1,1.4.25,1.5,1.5,0,0,1,.35,1.08,2.89,2.89,0,0,1-.19,1,2.29,2.29,0,0,1-.47.75,2.21,2.21,0,0,1-.56.42,1.47,1.47,0,0,1-.57.13,1.1,1.1,0,0,1-1-.66l-.42,2h-.63m1.24-2.88a1.59,1.59,0,0,0,.06.57.83.83,0,0,0,.26.36.89.89,0,0,0,.47.14,1,1,0,0,0,.86-.6,2.6,2.6,0,0,0,.33-1.25,1.08,1.08,0,0,0-.22-.7.7.7,0,0,0-.54-.27.87.87,0,0,0-.44.13,1.11,1.11,0,0,0-.38.37,2.65,2.65,0,0,0-.29.61,2,2,0,0,0-.11.64"/><path class="cls-1" d="M215.31,54.19a2.56,2.56,0,0,1,.63-1.77,1.72,1.72,0,0,1,1.36-.58,1.37,1.37,0,0,1,1.06.43,1.48,1.48,0,0,1,.41,1.1,2.73,2.73,0,0,1-.27,1.18,1.92,1.92,0,0,1-.72.82,1.76,1.76,0,0,1-1,.29,1.82,1.82,0,0,1-.78-.18,1.19,1.19,0,0,1-.53-.51,1.82,1.82,0,0,1-.18-.78m.63-.07a1.25,1.25,0,0,0,.23.8.88.88,0,0,0,.64.27,1,1,0,0,0,.39-.08,1.11,1.11,0,0,0,.36-.25,1.49,1.49,0,0,0,.28-.38,2.15,2.15,0,0,0,.21-.46,1.89,1.89,0,0,0,.11-.65,1.06,1.06,0,0,0-.25-.76.81.81,0,0,0-.63-.28,1,1,0,0,0-.54.14,1.63,1.63,0,0,0-.44.4,1.9,1.9,0,0,0-.28.63,3.1,3.1,0,0,0-.08.62"/><path class="cls-1" d="M219.24,54.33l.6,0a1.51,1.51,0,0,0,.08.45.8.8,0,0,0,.32.31,1.13,1.13,0,0,0,1.14-.05.47.47,0,0,0,.2-.39.43.43,0,0,0-.13-.29,1.56,1.56,0,0,0-.62-.36c-.33-.14-.53-.25-.63-.3a1,1,0,0,1-.36-.33.94.94,0,0,1-.1-.43.92.92,0,0,1,.34-.75,1.38,1.38,0,0,1,1-.32,1.48,1.48,0,0,1,1,.33,1.12,1.12,0,0,1,.38.83l-.61,0a.76.76,0,0,0-.23-.52.87.87,0,0,0-.63-.2.68.68,0,0,0-.5.15.45.45,0,0,0-.17.32.37.37,0,0,0,.14.29,2.29,2.29,0,0,0,.53.28,4,4,0,0,1,.91.49.91.91,0,0,1,.29.7,1,1,0,0,1-.17.53,1.1,1.1,0,0,1-.5.41,1.86,1.86,0,0,1-.81.16,1.84,1.84,0,0,1-1.08-.32,1.06,1.06,0,0,1-.4-1"/><path class="cls-1" d="M225.44,54.34l.61.07a1.74,1.74,0,0,1-.6.84,1.65,1.65,0,0,1-1.12.41,1.61,1.61,0,0,1-.75-.19,1.39,1.39,0,0,1-.52-.53,2,2,0,0,1-.17-.83,2.71,2.71,0,0,1,.28-1.16,1.88,1.88,0,0,1,.72-.82,1.74,1.74,0,0,1,1-.29,1.4,1.4,0,0,1,1,.41,1.53,1.53,0,0,1,.39,1.11,3.62,3.62,0,0,1-.05.55h-2.69v.2a1.17,1.17,0,0,0,.24.78.74.74,0,0,0,.56.27A1.05,1.05,0,0,0,225,55a1.31,1.31,0,0,0,.49-.61m-1.8-.9h2.05V53.3a1,1,0,0,0-.24-.72.76.76,0,0,0-.59-.25,1.06,1.06,0,0,0-.73.28,1.74,1.74,0,0,0-.49.83"/></g></g></svg>